<?xml version="1.0" encoding="UTF-8" standalone="no"?>
<svg width="802px" height="492px" viewBox="0 0 802 492" version="1.1" xmlns="http://www.w3.org/2000/svg" xmlns:xlink="http://www.w3.org/1999/xlink">
    <!-- Generator: Sketch 41.2 (35397) - http://www.bohemiancoding.com/sketch -->
    <title>Slice</title>
    <desc>Created with Sketch.</desc>
    <defs>
        <rect id="path-1" x="23" y="133" width="775" height="59"></rect>
        <mask id="mask-2" maskContentUnits="userSpaceOnUse" maskUnits="objectBoundingBox" x="0" y="0" width="775" height="59" fill="white">
            <use xlink:href="#path-1"></use>
        </mask>
    </defs>
    <g id="Page-3" stroke="none" stroke-width="1" fill="none" fill-rule="evenodd">
        <g id="Group" transform="translate(616.149238, 132.614746) scale(-1, 1) rotate(21.000000) translate(-616.149238, -132.614746) translate(428.649238, 48.614746)">
            <path d="M252.205078,111.786495 C200.909481,154.882664 165.137879,136.573139 132.091797,144.013852 C99.0457143,151.454565 74.5644531,167.494141 74.5644531,167.494141 C74.5644531,167.494141 33.9357941,164.676808 28.1679688,157.974609 C22.4001434,151.27241 8.05273437,130.119141 8.05273437,130.119141 C8.05273437,130.119141 -0.814212442,117.536922 0.482723184,111.786495 C1.77965881,106.036068 16.3691406,82.6855469 16.3691406,82.6855469 L12.2111152,66.4972337 L18.9433594,35.5169641 C18.9433594,35.5169641 30.6289063,34.1458703 38.8515625,19.6654016 C47.0742188,5.18493283 48.2070313,0.634765625 48.2070313,0.634765625 C48.2070313,0.634765625 69.2675352,2.00744672 77.1191406,0.634765625 C84.970746,-0.737915474 111.699219,19.6654016 111.699219,19.6654016 C111.699219,19.6654016 136.508738,29.4280207 142.962891,35.5169641 C149.417044,41.6059075 199.564453,35.5169641 199.564453,35.5169641 L262.296875,40.1972656 C262.296875,40.1972656 300.433114,39.1140436 315.527344,40.1972656 C330.621574,41.2804877 339.349609,40.1972656 339.349609,40.1972656 L358.517578,31.9179688 C358.517578,31.9179688 371.009066,34.0692848 374.039063,37.5859375 C377.069059,41.1025902 368.242188,54.8085938 368.242188,54.8085938 L348.71875,62.9609375 C348.71875,62.9609375 325.24861,64.8822468 315.527344,66.4972337 C311.335853,67.193563 287.60894,80.9176274 285.210938,82.6855469 C282.812935,84.4534663 296.234572,74.7949676 252.205078,111.786495 Z" id="Path-4" fill="#8BD638"></path>
            <path d="M214.602931,78.4207026 C214.112453,79.3610069 212.203249,81.3639277 212.203249,81.3639277 L157.823537,112.871665 C157.823537,112.871665 145.347021,118.255695 144.97808,117.590108 C144.609139,116.92452 151.791387,110.429969 151.791387,110.429969 L206.708696,79.9888074 C201.630117,80.9930079 196.19843,82.0594631 190.376953,83.1992188 C183.158448,84.6124909 162.5169,87.7246755 144.004839,91.6269531 C125.492777,95.5292308 61.1367188,89.240986 61.1367188,89.240986 C61.1367188,89.240986 48.553949,91.3070656 48.1523438,89.240986 C47.7507385,87.1749063 40.6328125,77.6972656 40.6328125,77.6972656 C40.6328125,77.6972656 117.094514,91.1065501 142.565644,87.2438413 L95.5900269,73.7737997 C95.5900269,73.7737997 99.6243579,74.3413816 99.7871094,73.7737997 C99.9498609,73.2062179 99.7871094,70.8930664 99.7871094,70.8930664 L147.363809,85.4987945 C147.363809,85.4987945 147.80004,85.7825405 148.3106,86.1462425 C156.764706,84.4610226 172.209676,81.3200409 190.846608,77.5101256 L132.199219,61.9515843 C132.199219,61.9515843 140.470126,61.1344005 140.632877,60.5668187 C140.795629,59.9992368 150.240234,64.2363281 150.240234,64.2363281 L197.411142,76.1675113 C214.392268,72.6928855 233.500616,68.7716338 252.157547,64.937843 C240.633329,61.3129902 219.768854,54.7331496 211.306641,51.9550781 C199.326344,48.0220504 185.32553,47.4113319 185.488281,46.84375 C185.651033,46.2761681 197.712891,44.2695312 197.712891,44.2695312 L258.241115,63.6875541 C302.919526,54.5039734 343.337963,46.1676165 343.337963,46.1676165 C343.337963,46.1676165 358.424821,44.9100765 357.067905,46.7608908 C355.710989,48.6117052 351.021296,51.8738798 351.021296,51.8738798 C351.021296,51.8738798 316.113326,56.859245 298.269579,60.4512429 C296.265324,60.8547053 293.651079,61.4384598 289.916534,62.2811941 C290.254333,62.2672795 290.502168,62.2903668 290.560641,62.3770574 C290.792124,62.7202447 288.807623,65.1745713 288.807623,65.1745713 L248.072911,93.7674529 C248.072911,93.7674529 224.6251,107.637947 224.294922,107.148438 C223.964744,106.658928 222.579729,106.331253 227.238281,101.220703 C231.896834,96.1101531 242.316406,93.7674529 242.316406,93.7674529 L286.653079,63.0182526 C276.991086,65.2000824 261.192099,68.7490824 233.753906,74.5136719 C228.044101,75.7132656 221.702334,77.0029949 214.602931,78.4207026 Z M86.9328727,122.547522 L129.108195,96.1257159 C129.108195,96.1257159 131.218426,93.7786136 131.005221,93.4237818 C130.792017,93.06895 127.563081,93.554214 127.563081,93.554214 L82.1332137,120.851232 C82.1332137,120.851232 76.6105416,126.159393 76.9146485,126.665512 C77.2187553,127.171631 86.9328727,122.547522 86.9328727,122.547522 Z" id="Combined-Shape" fill="#C3EA9C"></path>
        </g>
        <g id="Group" transform="translate(188.390106, 119.427987) rotate(16.000000) translate(-188.390106, -119.427987) translate(0.890106, 35.427987)">
            <path d="M252.205078,111.786495 C200.909481,154.882664 165.137879,136.573139 132.091797,144.013852 C99.0457143,151.454565 74.5644531,167.494141 74.5644531,167.494141 C74.5644531,167.494141 33.9357941,164.676808 28.1679688,157.974609 C22.4001434,151.27241 8.05273437,130.119141 8.05273437,130.119141 C8.05273437,130.119141 -0.814212442,117.536922 0.482723184,111.786495 C1.77965881,106.036068 16.3691406,82.6855469 16.3691406,82.6855469 L12.2111152,66.4972337 L18.9433594,35.5169641 C18.9433594,35.5169641 30.6289063,34.1458703 38.8515625,19.6654016 C47.0742188,5.18493283 48.2070313,0.634765625 48.2070313,0.634765625 C48.2070313,0.634765625 69.2675352,2.00744672 77.1191406,0.634765625 C84.970746,-0.737915474 111.699219,19.6654016 111.699219,19.6654016 C111.699219,19.6654016 136.508738,29.4280207 142.962891,35.5169641 C149.417044,41.6059075 199.564453,35.5169641 199.564453,35.5169641 L262.296875,40.1972656 C262.296875,40.1972656 300.433114,39.1140436 315.527344,40.1972656 C330.621574,41.2804877 339.349609,40.1972656 339.349609,40.1972656 L358.517578,31.9179688 C358.517578,31.9179688 371.009066,34.0692848 374.039063,37.5859375 C377.069059,41.1025902 368.242188,54.8085938 368.242188,54.8085938 L348.71875,62.9609375 C348.71875,62.9609375 325.24861,64.8822468 315.527344,66.4972337 C311.335853,67.193563 287.60894,80.9176274 285.210938,82.6855469 C282.812935,84.4534663 296.234572,74.7949676 252.205078,111.786495 Z" id="Path-4" fill="#8BD638"></path>
            <path d="M214.602931,78.4207026 C214.112453,79.3610069 212.203249,81.3639277 212.203249,81.3639277 L157.823537,112.871665 C157.823537,112.871665 145.347021,118.255695 144.97808,117.590108 C144.609139,116.92452 151.791387,110.429969 151.791387,110.429969 L206.708696,79.9888074 C201.630117,80.9930079 196.19843,82.0594631 190.376953,83.1992188 C183.158448,84.6124909 162.5169,87.7246755 144.004839,91.6269531 C125.492777,95.5292308 61.1367188,89.240986 61.1367188,89.240986 C61.1367188,89.240986 48.553949,91.3070656 48.1523438,89.240986 C47.7507385,87.1749063 40.6328125,77.6972656 40.6328125,77.6972656 C40.6328125,77.6972656 117.094514,91.1065501 142.565644,87.2438413 L95.5900269,73.7737997 C95.5900269,73.7737997 99.6243579,74.3413816 99.7871094,73.7737997 C99.9498609,73.2062179 99.7871094,70.8930664 99.7871094,70.8930664 L147.363809,85.4987945 C147.363809,85.4987945 147.80004,85.7825405 148.3106,86.1462425 C156.764706,84.4610226 172.209676,81.3200409 190.846608,77.5101256 L132.199219,61.9515843 C132.199219,61.9515843 140.470126,61.1344005 140.632877,60.5668187 C140.795629,59.9992368 150.240234,64.2363281 150.240234,64.2363281 L197.411142,76.1675113 C214.392268,72.6928855 233.500616,68.7716338 252.157547,64.937843 C240.633329,61.3129902 219.768854,54.7331496 211.306641,51.9550781 C199.326344,48.0220504 185.32553,47.4113319 185.488281,46.84375 C185.651033,46.2761681 197.712891,44.2695312 197.712891,44.2695312 L258.241115,63.6875541 C302.919526,54.5039734 343.337963,46.1676165 343.337963,46.1676165 C343.337963,46.1676165 358.424821,44.9100765 357.067905,46.7608908 C355.710989,48.6117052 351.021296,51.8738798 351.021296,51.8738798 C351.021296,51.8738798 316.113326,56.859245 298.269579,60.4512429 C296.265324,60.8547053 293.651079,61.4384598 289.916534,62.2811941 C290.254333,62.2672795 290.502168,62.2903668 290.560641,62.3770574 C290.792124,62.7202447 288.807623,65.1745713 288.807623,65.1745713 L248.072911,93.7674529 C248.072911,93.7674529 224.6251,107.637947 224.294922,107.148438 C223.964744,106.658928 222.579729,106.331253 227.238281,101.220703 C231.896834,96.1101531 242.316406,93.7674529 242.316406,93.7674529 L286.653079,63.0182526 C276.991086,65.2000824 261.192099,68.7490824 233.753906,74.5136719 C228.044101,75.7132656 221.702334,77.0029949 214.602931,78.4207026 Z M86.9328727,122.547522 L129.108195,96.1257159 C129.108195,96.1257159 131.218426,93.7786136 131.005221,93.4237818 C130.792017,93.06895 127.563081,93.554214 127.563081,93.554214 L82.1332137,120.851232 C82.1332137,120.851232 76.6105416,126.159393 76.9146485,126.665512 C77.2187553,127.171631 86.9328727,122.547522 86.9328727,122.547522 Z" id="Combined-Shape" fill="#C3EA9C"></path>
        </g>
        <path d="M798,492 C798,321.896297 624.510341,184 410.5,184 C196.489659,184 23,321.896297 23,492 C212.244186,492 536.662791,492 798,492 Z" id="Oval-3" fill-opacity="0.391587409" fill="#50E3C2" transform="translate(410.500000, 338.000000) scale(-1, 1) rotate(-180.000000) translate(-410.500000, -338.000000) "></path>
        <use id="Rectangle" stroke="#979797" mask="url(#mask-2)" stroke-width="2" fill-opacity="0.882416214" fill="#50E3C2" xlink:href="#path-1"></use>
    </g>
</svg>