<?xml version="1.0" encoding="UTF-8" standalone="no"?>
<svg width="586px" height="620px" viewBox="0 0 586 620" version="1.1" xmlns="http://www.w3.org/2000/svg" xmlns:xlink="http://www.w3.org/1999/xlink">
    <!-- Generator: Sketch 41.2 (35397) - http://www.bohemiancoding.com/sketch -->
    <title>Slice 8</title>
    <desc>Created with Sketch.</desc>
    <defs></defs>
    <g id="Page-3" stroke="none" stroke-width="1" fill="none" fill-rule="evenodd">
        <g id="Group-4" transform="translate(105.000000, 217.000000)">
            <path d="M31.8421174,8.99144788 C31.8421174,8.99144788 24.5769222,30.6162123 49.4519222,30.6162123 C59.2395775,30.6162123 83.8976863,48.9667067 106.936297,53.2099623 C129.974908,57.4532179 160.420672,53.2099623 160.420672,53.2099623 C160.420672,53.2099623 144.877573,79.1398569 139.530047,102.475587 C135.167845,121.511524 140.795337,120.062497 141.873019,170.315237 C142.950701,220.567976 139.583018,240.489342 139.530047,252.038087 C139.242564,314.715143 177.764422,415.022462 177.764422,415.022462 C177.764422,415.022462 136.3274,411.627572 119.861656,376.219423 C103.395912,340.811275 98.9861071,245.616558 98.9861071,245.616558 C98.9861071,245.616558 115.823151,216.279091 111.670319,165.531599 C107.517486,114.784106 31.8421174,8.99144788 31.8421174,8.99144788 Z" id="Rectangle-4" fill="#B8E986" transform="translate(104.309345, 212.006955) rotate(-9.000000) translate(-104.309345, -212.006955) "></path>
            <path d="M139.827287,53.6748836 C162.865898,57.9181391 153.778285,48.2243416 153.778285,48.2243416 C153.778285,48.2243416 138.235186,74.1542362 132.88766,97.4899666 C128.525458,116.525903 134.152949,115.076877 135.230632,165.329616 C136.308314,215.582355 132.940631,235.503722 132.88766,247.052467 C132.600176,309.729522 133.852201,279.169186 133.069726,277.486542 C116.603982,242.078394 109.778983,243.392412 109.778983,243.392412 C109.778983,243.392412 126.616027,214.054945 122.463194,163.307452 C118.310362,112.55996 116.788676,49.431628 139.827287,53.6748836 Z" id="Rectangle-4" fill="#7ED321" transform="translate(132.662311, 167.314378) rotate(-9.000000) translate(-132.662311, -167.314378) "></path>
        </g>
        <g id="Group-4" transform="translate(247.490755, 350.418435) rotate(20.000000) translate(-247.490755, -350.418435) translate(133.990755, 119.918435)">
            <path d="M34.5755318,9.76329835 C34.5755318,9.76329835 26.6866724,33.2443917 53.6970104,33.2443917 C64.3248648,33.2443917 91.0996931,53.1701427 116.116001,57.777651 C141.13231,62.3851592 174.191621,57.777651 174.191621,57.777651 C174.191621,57.777651 157.31426,85.9334386 151.507688,111.272372 C146.771023,131.942406 152.881593,130.36899 154.051787,184.935562 C155.22198,239.502134 151.565206,261.133605 151.507688,273.673726 C151.195526,341.731151 193.024206,450.649125 193.024206,450.649125 C193.024206,450.649125 148.030117,446.962808 130.150908,408.515127 C112.271699,370.067446 107.483345,266.700955 107.483345,266.700955 C107.483345,266.700955 125.765727,234.84508 121.256404,179.741284 C116.747081,124.637488 34.5755318,9.76329835 34.5755318,9.76329835 Z" id="Rectangle-4" fill="#B8E986" transform="translate(113.263545, 230.206212) rotate(-9.000000) translate(-113.263545, -230.206212) "></path>
            <path d="M151.830444,58.2824823 C176.846752,62.8899906 166.979033,52.3640509 166.979033,52.3640509 C166.979033,52.3640509 150.101672,80.5198385 144.2951,105.858772 C139.558435,126.528806 145.669005,124.95539 146.839199,179.521962 C148.009392,234.088534 144.352618,255.720005 144.2951,268.260126 C143.982938,336.317551 145.34244,303.133832 144.492795,301.306746 C126.613587,262.859065 119.202711,264.285882 119.202711,264.285882 C119.202711,264.285882 137.485092,232.430007 132.97577,177.326211 C128.466447,122.222415 126.814136,53.6749741 151.830444,58.2824823 Z" id="Rectangle-4" fill="#7ED321" transform="translate(144.050406, 181.677102) rotate(-9.000000) translate(-144.050406, -181.677102) "></path>
        </g>
        <path d="M242,469.306641 C242,469.306641 244.670937,461.711312 263.746094,440.601562 C282.821251,419.491813 312.920127,389.777344 324.53125,389.777344 C334.318905,389.777344 324.242639,475.497818 347.28125,477.390285 C370.319861,479.282752 368.171875,487.466965 368.171875,487.466965 C368.171875,487.466965 352.628776,555.115311 347.28125,565.52291 C341.933724,575.930509 347.568734,568.036285 347.28125,595.989885 C346.993766,623.943485 347.28125,618.589245 347.28125,618.589245 L281.375,610.463789 C281.375,610.463789 255.152344,558.021361 255.152344,528.390625 C255.152344,498.759889 242,469.306641 242,469.306641 Z" id="Rectangle-4" fill="#B8E986"></path>
        <path d="M292.53125,576.550781 C292.53125,576.550781 281.639687,441.078499 300.714844,419.96875 C319.790001,398.859001 312.920127,389.777344 324.53125,389.777344 C334.318905,389.777344 324.242639,475.497818 347.28125,477.390285 C370.319861,479.282752 368.171875,487.466965 368.171875,487.466965 C368.171875,487.466965 352.628776,555.115311 347.28125,565.52291 C341.933724,575.930509 347.568734,568.036285 347.28125,595.989885 C346.993766,623.943485 315.273437,595.989885 315.273437,595.989885 L281.375,610.463789 L259.265625,580.921875 L292.53125,576.550781 Z" id="Rectangle-4" fill="#7ED321"></path>
        <path d="M286,259.741621 C286,259.741621 347.907553,327.355469 376.617188,327.355469 C387.91367,327.355469 370.030939,300.22047 396.621094,305.09375 C423.211249,309.96703 412.163696,285.690017 412.163696,285.690017 C412.163696,285.690017 394.224533,393.871381 388.052652,420.671924 C381.880772,447.472468 388.384454,493.163569 388.052652,565.146709 C387.720851,637.12985 349.112465,602.418368 349.112465,602.418368 L311.986547,602.418368 C311.986547,602.418368 311.986547,488.862731 311.986547,412.560807 C311.986547,336.258884 286,259.741621 286,259.741621 Z" id="Rectangle-4" fill="#B8E986"></path>
        <path d="M305,217 L361.59375,217 C371.381405,217 416.973108,282.584869 440.011719,286.828125 C463.05033,291.071381 507,265.265625 507,265.265625 C507,265.265625 491.456901,291.19552 486.109375,314.53125 C482.271376,331.27965 448.263932,332.177398 440.011719,379.664062 C436.766033,398.341091 453.596777,461.869698 453.515625,479.5625 C453.228141,542.239556 486.109375,619.46875 486.109375,619.46875 L420.203125,601.265625 C420.203125,601.265625 406,401.53125 406,335.09375 C406,268.65625 305,217 305,217 Z" id="Rectangle-4" fill="#7ED321" transform="translate(406.000000, 418.234375) scale(-1, 1) translate(-406.000000, -418.234375) "></path>
        <g id="brocoli-whole">
            <g id="highlights" transform="translate(50.000000, 0.000000)" fill="#578F17">
                <path d="M149.523438,116.034213 C159.690715,116.034213 182.191812,118.858957 188.492188,116.034213 C194.792563,113.209468 203.350684,90.677649 224.796875,82.6289366 C251.023437,72.7861605 253.976072,23.0576502 198.195312,23.0576502 C187.413574,23.0576502 157.562185,2.50294911 149.523438,0.752962669 C141.48469,-0.997023773 105,-2.58045412 105,31.5029627 C105,50.5220655 125.065862,75.5296838 125.21875,82.6289366 C125.371638,89.7281894 118.852866,116.034213 149.523438,116.034213 Z" id="Oval-11"></path>
                <path d="M296.523438,122.034213 C306.690715,122.034213 329.191812,124.858957 335.492188,122.034213 C341.792563,119.209468 350.350684,96.677649 371.796875,88.6289366 C398.023437,78.7861605 400.976072,29.0576502 345.195312,29.0576502 C334.413574,29.0576502 304.562185,8.50294911 296.523438,6.75296267 C288.48469,5.00297623 252,3.41954588 252,37.5029627 C252,56.5220655 272.065862,81.5296838 272.21875,88.6289366 C272.371638,95.7281894 265.852866,122.034213 296.523438,122.034213 Z" id="Oval-11"></path>
                <path d="M342,260.232982 C365.205817,243.793709 379.654762,239.888964 402.023438,237.982982 C424.392113,236.076999 473.21875,237.927452 473.21875,218.514232 C473.21875,201.221255 502.158578,191.030776 473.21875,179.701732 C444.278922,168.372687 427.992571,180.928375 402.023438,179.701732 C369.054727,178.144466 362.716408,158.104395 342,169.475169 C321.283592,180.845943 309.092588,217.788515 301.640625,218.514232 C287.822789,219.859895 234,213.060333 234,237.982982 C234,270.291639 283.859375,301.420482 342,260.232982 Z" id="Oval-12"></path>
                <path d="M265,237.232982 C288.205817,220.793709 302.654762,216.888964 325.023438,214.982982 C347.392113,213.076999 396.21875,214.927452 396.21875,195.514232 C396.21875,178.221255 425.158578,168.030776 396.21875,156.701732 C367.278922,145.372687 350.992571,157.928375 325.023438,156.701732 C292.054727,155.144466 285.716408,135.104395 265,146.475169 C244.283592,157.845943 232.092588,194.788515 224.640625,195.514232 C210.822789,196.859895 157,190.060333 157,214.982982 C157,247.291639 206.859375,278.420482 265,237.232982 Z" id="Oval-12"></path>
                <path d="M108,150.232982 C131.205817,133.793709 145.654762,129.888964 168.023438,127.982982 C190.392113,126.076999 239.21875,127.927452 239.21875,108.514232 C239.21875,91.2212552 268.158578,81.0307758 239.21875,69.7017316 C210.278922,58.3726873 193.992571,70.9283749 168.023438,69.7017316 C135.054727,68.1444656 128.716408,48.1043951 108,59.4751691 C87.2835925,70.845943 75.0925883,107.788515 67.640625,108.514232 C53.8227888,109.859895 0,103.060333 0,127.982982 C0,160.291639 49.859375,191.420482 108,150.232982 Z" id="Oval-12"></path>
                <path d="M120.743506,239.034213 C129.59089,239.034213 149.170945,241.858957 154.653421,239.034213 C160.135896,236.209468 167.583021,213.677649 186.245116,205.628937 C209.067006,195.78616 214.711303,123.752963 166.171875,123.752963 C156.789797,123.752963 127.738681,125.502949 120.743506,123.752963 C113.74833,122.002976 82,120.419546 82,154.502963 C82,173.522065 99.4609572,198.529684 99.5939977,205.628937 C99.7270381,212.728189 94.0545181,239.034213 120.743506,239.034213 Z" id="Oval-11"></path>
                <path d="M306.743506,196.034213 C315.59089,196.034213 335.170945,198.858957 340.653421,196.034213 C346.135896,193.209468 353.583021,170.677649 372.245116,162.628937 C395.067006,152.78616 400.711303,80.7529627 352.171875,80.7529627 C342.789797,80.7529627 313.738681,82.5029491 306.743506,80.7529627 C299.74833,79.0029762 268,77.4195459 268,111.502963 C268,130.522065 285.460957,155.529684 285.593998,162.628937 C285.727038,169.728189 280.054518,196.034213 306.743506,196.034213 Z" id="Oval-11"></path>
                <path d="M54.7435057,233.034213 C63.5908903,233.034213 83.1709455,235.858957 88.6534208,233.034213 C94.1358962,230.209468 101.583021,207.677649 120.245116,199.628937 C143.067006,189.78616 148.711303,117.752963 100.171875,117.752963 C90.789797,117.752963 61.7386812,119.502949 54.7435057,117.752963 C47.7483302,116.002976 16,114.419546 16,148.502963 C16,167.522065 33.4609572,192.529684 33.5939977,199.628937 C33.7270381,206.728189 28.0545181,233.034213 54.7435057,233.034213 Z" id="Oval-11"></path>
            </g>
            <g id="shadows" transform="translate(0.000000, 32.000000)" fill="#417505">
                <path d="M205.882619,14.8855907 C209.354995,10.4401026 213.140644,6.60709785 217.270533,3.97364516 C237.660476,-9.02814554 243.898912,13.8864602 276.348077,15.6670994 C301.90797,17.0696917 317.937668,2.71302413 346.421441,15.6670994 C374.905214,28.6211748 346.421441,40.2733703 346.421441,60.0468404 C346.421441,70.3406312 336.086986,75.4058795 322.807344,78.0955483 C341.308325,101.401851 334.004296,151.097284 316.920154,159.657225 C298.552149,168.860439 291.222382,194.624209 285.826304,197.854133 C280.430225,201.084057 261.158727,197.854133 252.450766,197.854133 C226.182363,197.854133 231.765491,167.77479 231.634547,159.657225 C231.554753,154.710584 225.141848,142.16001 220.143941,128.18863 C217.796298,136.477204 211.424954,143.778264 195.252132,143.778264 C184.525595,143.778264 160.786808,146.916544 154.139875,143.778264 C150.474942,142.047904 146.085874,133.661377 139.092768,124.985879 C130.899093,121.041555 124.170919,115.162516 119.352397,108.231576 C118.218728,107.667304 117.047908,107.143221 115.83822,106.665134 C88.1690448,95.7298488 81.3259196,15.7012505 140.174944,15.7012505 C151.54974,15.7012505 186.771207,17.6454785 195.252132,15.7012505 C197.329995,15.2249063 201.209309,14.7596697 205.882619,14.8855907 Z" id="Combined-Shape" stroke="#979797"></path>
                <path d="M153.507813,253.271666 C176.713629,236.352334 183.7407,265.748932 206.109375,263.787291 C228.47805,261.825651 263.59375,214.205802 263.59375,194.225677 C263.59375,176.427711 268.158578,152.251337 239.21875,140.591462 C210.278922,128.931587 193.992571,141.853926 168.023438,140.591462 C135.054727,138.988721 146.756856,112.068843 126.040448,123.771666 C115.734478,129.593571 98.8286398,128.006468 87.7890625,140.591462 C76.7494852,153.176456 57.3072707,180.162028 53.5625,180.537365 C39.7446638,181.922325 0,174.924202 0,200.574642 C0,233.826778 95.3671875,295.661924 153.507813,253.271666 Z" id="Oval-12" transform="translate(131.928140, 194.225677) scale(1, -1) translate(-131.928140, -194.225677) "></path>
                <path d="M259.743506,269.034213 C268.59089,269.034213 288.170945,271.858957 293.653421,269.034213 C299.135896,266.209468 306.583021,243.677649 325.245116,235.628937 C348.067006,225.78616 353.711303,153.752963 305.171875,153.752963 C295.789797,153.752963 266.738681,155.502949 259.743506,153.752963 C252.74833,152.002976 221,150.419546 221,184.502963 C221,203.522065 238.460957,228.529684 238.593998,235.628937 C238.727038,242.728189 233.054518,269.034213 259.743506,269.034213 Z" id="Oval-11"></path>
                <path d="M501.957415,81.8869098 C515.355184,81.9994428 534.383243,81.0265884 542.060596,81.0265884 C598.382825,81.0265884 591.833523,161.544278 565.352376,172.546394 C543.698004,181.543131 535.056809,206.72888 528.695275,209.886339 C522.333741,213.043798 499.614223,209.886339 489.348251,209.886339 C458.379957,209.886339 464.962008,180.481839 464.807635,172.546394 C464.754141,169.796541 462.286253,164.642927 459.083705,158.197067 C457.477407,159.54556 455.76489,160.618557 453.959756,161.368536 C432.305384,170.365272 423.664189,195.551022 417.302655,198.708481 C410.941121,201.86594 388.221604,198.708481 377.955631,198.708481 C346.987337,198.708481 353.569388,169.30398 353.415016,161.368536 C353.260643,153.433091 333,125.479929 333,104.220645 C333,74.3714266 355.613539,68.9951279 369.309545,69.0070987 C366.442626,61.6442813 364.329174,54.0797939 364.329174,47.2135662 C364.329174,9.11560488 401.168025,10.8855409 409.284806,12.841651 C417.401586,14.7977611 451.110752,12.841651 461.99715,12.841651 C502.462564,12.841651 510.474418,54.4039544 501.957415,81.8869098 Z" id="Combined-Shape"></path>
            </g>
        </g>
    </g>
</svg>