<?xml version="1.0" encoding="UTF-8" standalone="no"?>
<svg width="260px" height="714px" viewBox="0 0 260 714" version="1.1" xmlns="http://www.w3.org/2000/svg" xmlns:xlink="http://www.w3.org/1999/xlink">
    <!-- Generator: Sketch 41.2 (35397) - http://www.bohemiancoding.com/sketch -->
    <title>Slice</title>
    <desc>Created with Sketch.</desc>
    <defs>
        <path d="M174.974375,55.8939556 C174.974375,55.8939556 139.278428,6.52624704 157.879723,6.52624704 C176.481017,6.52624704 226.258333,37.3810649 226.258333,37.3810649 C226.258333,37.3810649 266.787751,8.56779045 268.994965,21.953656 C269.593864,25.5857375 217.711007,49.722992 226.258333,83.6632916 C228.517288,92.6333037 285.626724,32.6461187 290.363281,55.8939556 C291.781715,62.855874 228.84224,105.381768 226.258333,136.116482 C223.674427,166.851196 209.16368,222.509972 209.16368,222.509972 C209.16368,222.509972 190.438032,218.787267 183.521702,151.543891 C176.605371,84.3005149 127.96408,116.25471 127.96408,105.261664 C127.96408,39.1669677 157.879723,104.902288 157.879723,92.919737 C157.879723,37.3810649 110.085131,82.3631089 110.869428,71.3213645 C115.971746,-0.511772024 174.974375,55.8939556 174.974375,55.8939556 Z" id="path-1"></path>
        <mask id="mask-2" maskContentUnits="userSpaceOnUse" maskUnits="objectBoundingBox" x="0" y="0" width="179.527017" height="215.983725" fill="white">
            <use xlink:href="#path-1"></use>
        </mask>
        <path d="M212.453325,75.6247505 C212.453325,75.6247505 171.926237,7.34936211 190.527532,7.34936211 C209.128827,7.34936211 240.694801,49.4321139 240.694801,49.4321139 C240.694801,49.4321139 277.483864,23.4522812 290.273622,24.0979782 C292.812324,24.2261457 227.632539,62.1073321 236.179866,96.0476317 C238.438821,105.017644 248.464599,82.4899581 253.201155,105.737795 C254.619589,112.699713 251.972007,105.740739 249.388101,136.475453 C246.804194,167.210167 241.81149,223.333087 241.81149,223.333087 C241.81149,223.333087 223.085842,219.610382 216.169511,152.367006 C209.253181,85.12363 160.61189,117.077825 160.61189,106.084779 C160.61189,39.9900827 196.959444,114.880956 196.959444,102.898406 C196.959444,47.3597335 142.732941,83.186224 143.517237,72.1444796 C148.619555,0.311343042 212.453325,75.6247505 212.453325,75.6247505 Z" id="path-3"></path>
        <mask id="mask-4" maskContentUnits="userSpaceOnUse" maskUnits="objectBoundingBox" x="0" y="0" width="146.837151" height="215.983725" fill="white">
            <use xlink:href="#path-3"></use>
        </mask>
        <path d="M83.113654,162.399828 C83.113654,162.399828 53.0846728,92.7607668 68.1935339,92.7607668 C72.4465845,92.7607668 95.1309588,118.480802 107.595652,129.382775 C120.060345,140.284748 142.335715,102.010065 144.496199,112.811408 C149.711494,138.885289 123.105639,175.49337 123.105639,175.49337 C123.105639,175.49337 156.02557,158.220459 157.818375,166.244985 C158.304829,168.422336 116.163092,182.892078 123.105639,203.238526 C124.94047,208.615846 171.327484,172.654876 175.174742,186.591432 C176.326862,190.764946 125.204411,216.258265 123.105639,234.683035 C121.006866,253.107806 109.220544,286.473992 109.220544,286.473992 C109.220544,286.473992 94.0106774,284.242314 88.392903,243.931421 C82.7751287,203.620527 43.2663465,222.776349 43.2663465,216.186265 C43.2663465,176.563979 67.5652616,215.970827 67.5652616,208.787557 C67.5652616,175.49337 28.7442089,202.459095 29.3812522,195.839817 C33.5255989,152.777465 83.113654,162.399828 83.113654,162.399828 Z" id="path-5"></path>
        <mask id="mask-6" maskContentUnits="userSpaceOnUse" maskUnits="objectBoundingBox" x="0" y="0" width="145.820428" height="193.713226" fill="white">
            <use xlink:href="#path-5"></use>
        </mask>
        <path d="M107.864164,184.927757 C107.864164,184.927757 52.9946104,92.3920034 68.1034714,92.3920034 C72.356522,92.3920034 102.353507,133.167635 114.818201,144.069608 C127.282894,154.971581 142.245653,101.641301 144.406136,112.442645 C149.621432,138.516526 119.616271,181.448946 119.616271,181.448946 C119.616271,181.448946 155.935507,157.851696 157.728312,165.876221 C158.214766,168.053573 114.785443,191.208922 121.72799,211.555369 C123.562822,216.93269 171.237422,172.286113 175.08468,186.222669 C176.2368,190.396183 125.114349,215.889501 123.015576,234.314272 C120.916804,252.739043 109.130482,286.105229 109.130482,286.105229 C109.130482,286.105229 93.9206149,283.873551 88.3028405,243.562657 C82.6850662,203.251763 32.2702155,224.189452 32.2702155,217.599368 C32.2702155,177.977082 82.2921581,224.793286 82.2921581,217.610016 C82.2921581,184.31583 60.8531633,193.321543 61.4902066,186.702265 C65.6345533,143.639913 107.864164,184.927757 107.864164,184.927757 Z" id="path-7"></path>
        <mask id="mask-8" maskContentUnits="userSpaceOnUse" maskUnits="objectBoundingBox" x="0" y="0" width="142.833647" height="193.713226" fill="white">
            <use xlink:href="#path-7"></use>
        </mask>
        <path d="M147.83887,219.82253 C148.391233,218.869644 149.740559,218.097177 150.842292,218.097177 L159.656722,218.097177 C160.763103,218.097177 161.23146,218.876307 160.700662,219.846689 L136.723063,268.684768 C136.33368,269.71511 135.715722,271.395352 135.364454,272.429959 L127.599638,321.001652 C127.528426,322.107274 126.569149,323.003558 125.467417,323.003558 L116.652987,323.003558 C115.546606,323.003558 114.745191,322.113032 114.865088,321.023689 L122.672841,272.475652 C122.962344,271.412347 123.451412,269.688962 123.783082,268.638458 L147.83887,219.82253 Z" id="path-9"></path>
        <mask id="mask-10" maskContentUnits="userSpaceOnUse" maskUnits="objectBoundingBox" x="0" y="0" width="46.0662487" height="104.906381" fill="white">
            <use xlink:href="#path-9"></use>
        </mask>
        <path d="M147.661275,229.176457 C148.078129,228.169733 149.142104,226.829434 150.039844,226.181287 L159.613259,219.269512 C160.510052,218.622049 160.808505,218.876307 160.277706,219.846689 L136.300107,268.684768 C135.910724,269.71511 135.292766,271.395352 134.941498,272.429959 L127.176683,321.001652 C127.10547,322.107274 126.146194,323.003558 125.044461,323.003558 L116.230031,323.003558 C115.12365,323.003558 114.539771,322.17267 114.930433,321.131174 L130.764103,275.549182 C131.071892,274.492477 131.568794,272.77949 131.882631,271.721405 L147.661275,229.176457 Z" id="path-11"></path>
        <mask id="mask-12" maskContentUnits="userSpaceOnUse" maskUnits="objectBoundingBox" x="0" y="0" width="45.7315929" height="104.091822" fill="white">
            <use xlink:href="#path-11"></use>
        </mask>
        <path d="M203.346769,96.5964691 C203.629994,95.5368758 204.761141,94.6779057 205.862873,94.6779057 L214.677303,94.6779057 C215.783684,94.6779057 216.458726,95.5543779 216.190443,96.6182111 L191.373447,206.883234 C191.188518,207.96433 190.891423,209.724934 190.714964,210.813045 L182.547731,321.004603 C182.516553,322.108595 181.589731,323.003558 180.487998,323.003558 L171.673568,323.003558 C170.567187,323.003558 169.714374,322.100689 169.768746,321.005872 L177.966652,210.799747 C178.105255,209.717813 178.335964,207.95277 178.487757,206.853625 L203.346769,96.5964691 Z" id="path-13"></path>
        <mask id="mask-14" maskContentUnits="userSpaceOnUse" maskUnits="objectBoundingBox" x="0" y="0" width="46.4829487" height="228.325652" fill="white">
            <use xlink:href="#path-13"></use>
        </mask>
        <path d="M124.847116,78.0095479 C124.847116,78.0095479 94.8181349,8.37048674 109.926996,8.37048674 C114.180047,8.37048674 136.864421,34.0905222 149.329114,44.9924952 C161.793807,55.8944681 184.069177,17.6197848 186.229661,28.4211283 C191.444956,54.495009 164.839101,91.10309 164.839101,91.10309 C164.839101,91.10309 197.759032,73.830179 199.551837,81.8547048 C200.038291,84.0320561 157.896554,98.5017981 164.839101,118.848246 C166.673932,124.225566 213.060947,88.2645961 216.908204,102.201152 C218.060324,106.374666 166.937873,131.867984 164.839101,150.292755 C162.740328,168.717526 150.954007,202.083712 150.954007,202.083712 C150.954007,202.083712 135.744139,199.852034 130.126365,159.54114 C124.508591,119.230247 84.9998086,138.386069 84.9998086,131.795985 C84.9998086,92.1736986 109.298724,131.580547 109.298724,124.397277 C109.298724,91.10309 70.477671,118.068815 71.1147143,111.449537 C75.2590609,68.3871852 124.847116,78.0095479 124.847116,78.0095479 Z" id="path-15"></path>
        <mask id="mask-16" maskContentUnits="userSpaceOnUse" maskUnits="objectBoundingBox" x="0" y="0" width="145.820428" height="193.713226" fill="white">
            <use xlink:href="#path-15"></use>
        </mask>
        <path d="M145.405845,100.793538 C145.405845,100.793538 90.5362908,8.25778499 105.645152,8.25778499 C109.898202,8.25778499 139.895188,49.0334164 152.359881,59.9353893 C164.824574,70.8373622 179.787333,17.507083 181.947817,28.3084265 C187.163112,54.3823073 157.157951,97.3147278 157.157951,97.3147278 C157.157951,97.3147278 193.477188,73.7174772 195.269992,81.742003 C195.756447,83.9193543 152.327124,107.074703 159.269671,127.421151 C161.104502,132.798472 208.779102,88.1518943 212.62636,102.08845 C213.77848,106.261964 162.656029,131.755283 160.557257,150.180054 C158.458484,168.604824 146.672162,201.971011 146.672162,201.971011 C146.672162,201.971011 131.462295,199.739333 125.844521,159.428439 C120.226747,119.117545 69.8118959,140.055233 69.8118959,133.46515 C69.8118959,93.8428633 119.833839,140.659068 119.833839,133.475798 C119.833839,100.181611 98.3948437,109.187324 99.031887,102.568046 C103.176234,59.5056942 145.405845,100.793538 145.405845,100.793538 Z" id="path-17"></path>
        <mask id="mask-18" maskContentUnits="userSpaceOnUse" maskUnits="objectBoundingBox" x="0" y="0" width="142.833647" height="193.713226" fill="white">
            <use xlink:href="#path-17"></use>
        </mask>
        <path d="M203.346769,96.5964691 C203.629994,95.5368758 204.059989,95.5459901 204.308873,96.624119 L207.683977,111.244583 C207.932107,112.319447 207.84715,114.045654 207.502855,115.083087 L182.831265,206.868738 C182.643495,207.95784 182.344804,209.724423 182.171081,210.810559 L178.159898,317.923766 C178.191774,319.025193 177.366816,320.225204 176.341867,320.595198 L171.546035,322.326436 C170.510089,322.7004 169.714374,322.100689 169.768746,321.005872 L177.966652,210.799747 C178.105255,209.717813 178.335964,207.95277 178.487757,206.853625 L203.346769,96.5964691 Z" id="path-19"></path>
        <mask id="mask-20" maskContentUnits="userSpaceOnUse" maskUnits="objectBoundingBox" x="0" y="0" width="38.0605599" height="226.629224" fill="white">
            <use xlink:href="#path-19"></use>
        </mask>
        <path d="M173.431127,124.365805 C173.714352,123.306212 174.845498,122.447242 175.947231,122.447242 L184.761661,122.447242 C185.868042,122.447242 186.543084,123.323714 186.274801,124.387547 L161.457805,234.65257 C161.272876,235.733666 160.975781,237.49427 160.799322,238.582381 L152.632089,348.773939 C152.600911,349.877931 151.674088,350.772894 150.572356,350.772894 L141.757926,350.772894 C140.651545,350.772894 139.798732,349.870025 139.853104,348.775208 L148.05101,238.569083 C148.189613,237.487149 148.420322,235.722106 148.572115,234.622961 L173.431127,124.365805 Z" id="path-21"></path>
        <mask id="mask-22" maskContentUnits="userSpaceOnUse" maskUnits="objectBoundingBox" x="0" y="0" width="46.4829487" height="228.325652" fill="white">
            <use xlink:href="#path-21"></use>
        </mask>
        <path d="M173.431127,125.462145 C173.714352,124.402552 174.845498,123.543582 175.947231,123.543582 L184.761661,123.543582 C185.868042,123.543582 186.453747,124.374162 186.064119,125.420615 L152.919937,233.994531 C152.729785,235.083035 152.429162,236.847378 152.253121,237.941382 L148.235208,334.445338 C148.272081,335.547968 147.866358,337.228082 147.329807,338.196525 L140.726811,350.114534 C140.189899,351.083628 139.798732,350.966365 139.853104,349.871549 L148.05101,239.665423 C148.189613,238.583489 148.420322,236.818446 148.572115,235.719301 L173.431127,125.462145 Z" id="path-23"></path>
        <mask id="mask-24" maskContentUnits="userSpaceOnUse" maskUnits="objectBoundingBox" x="0" y="0" width="46.3367019" height="227.229312" fill="white">
            <use xlink:href="#path-23"></use>
        </mask>
        <path d="M121.503004,146.252817 C121.503004,146.252817 93.7797559,113.55897 108.226447,113.55897 C122.673138,113.55897 161.332677,133.992625 161.332677,133.992625 C161.332677,133.992625 192.809839,114.910986 194.524071,123.775797 C194.989206,126.181149 154.694398,142.166086 161.332677,164.643106 C163.087094,170.583511 207.441123,130.856899 211.119768,146.252817 C212.221395,150.863359 163.339467,179.026203 161.332677,199.380318 C159.325887,219.734433 148.05612,256.59455 148.05612,256.59455 C148.05612,256.59455 133.512849,254.129182 128.141283,209.597145 C122.769717,165.065108 84.9924708,186.226826 84.9924708,178.946664 C84.9924708,135.175342 108.226447,178.708666 108.226447,170.773202 C108.226447,133.992625 71.1067894,163.782058 71.7159132,156.469644 C75.6786272,108.898031 121.503004,146.252817 121.503004,146.252817 Z" id="path-25"></path>
        <mask id="mask-26" maskContentUnits="userSpaceOnUse" maskUnits="objectBoundingBox" x="0" y="0" width="139.429612" height="143.035579" fill="white">
            <use xlink:href="#path-25"></use>
        </mask>
        <path d="M125.286029,159.319569 C125.286029,159.319569 93.8106764,114.10408 108.257367,114.10408 C122.704058,114.10408 147.219764,141.973452 147.219764,141.973452 C147.219764,141.973452 175.79198,124.768264 185.725143,125.195878 C187.696825,125.280758 137.074962,150.367636 143.71324,172.844656 C145.467657,178.785061 153.254175,163.866064 156.932821,179.261982 C158.034447,183.872524 155.978203,179.263932 153.971413,199.618047 C151.964623,219.972162 148.08704,257.139659 148.08704,257.139659 C148.08704,257.139659 133.54377,254.674291 128.172204,210.142254 C122.800637,165.610217 85.0233914,186.771936 85.0233914,179.491773 C85.0233914,135.720451 113.25271,185.317056 113.25271,177.381592 C113.25271,140.601014 71.1377099,164.327167 71.7468337,157.014753 C75.7095477,109.44314 125.286029,159.319569 125.286029,159.319569 Z" id="path-27"></path>
        <mask id="mask-28" maskContentUnits="userSpaceOnUse" maskUnits="objectBoundingBox" x="0" y="0" width="114.041036" height="143.035579" fill="white">
            <use xlink:href="#path-27"></use>
        </mask>
        <path d="M202.91037,216.786507 C202.91037,216.786507 179.588369,170.667924 191.322662,170.667924 C194.625793,170.667924 212.243606,187.70106 221.924307,194.92091 C231.605008,202.140759 248.905168,176.793287 250.583108,183.946494 C254.633565,201.213965 233.970134,225.457727 233.970134,225.457727 C233.970134,225.457727 259.53739,214.018713 260.929772,219.332969 C261.307577,220.774923 228.578207,230.357534 233.970134,243.832003 C235.395156,247.393142 271.421619,223.57793 274.409591,232.807437 C275.304384,235.571354 235.600145,252.454346 233.970134,264.656181 C232.340123,276.858016 223.18628,298.954828 223.18628,298.954828 C223.18628,298.954828 211.37354,297.476896 207.010497,270.78094 C202.647454,244.084983 171.962968,256.770958 171.962968,252.406664 C171.962968,226.16674 190.834715,252.26399 190.834715,247.506858 C190.834715,225.457727 160.684354,243.315823 161.179113,238.932196 C164.397819,210.414082 202.91037,216.786507 202.91037,216.786507 Z" id="path-29"></path>
        <mask id="mask-30" maskContentUnits="userSpaceOnUse" maskUnits="objectBoundingBox" x="0" y="0" width="113.251398" height="128.286904" fill="white">
            <use xlink:href="#path-29"></use>
        </mask>
        <path d="M219.953058,231.705665 C219.953058,231.705665 177.338633,170.42371 189.072926,170.42371 C192.376057,170.42371 215.673208,197.427439 225.353909,204.647289 C235.03461,211.867138 246.655433,176.549073 248.333372,183.70228 C252.38383,200.969751 229.080329,229.401817 229.080329,229.401817 C229.080329,229.401817 257.287655,213.774499 258.680036,219.088755 C259.057841,220.530709 225.328468,235.865377 230.720395,249.339846 C232.145417,252.900986 269.171883,223.333716 272.159855,232.563223 C273.054648,235.32714 233.35041,252.210132 231.720399,264.411967 C230.090388,276.613802 220.936544,298.710614 220.936544,298.710614 C220.936544,298.710614 209.123804,297.232682 204.760761,270.536725 C200.397718,243.840769 161.243037,257.706788 161.243037,253.342494 C161.243037,227.102569 200.092566,258.106678 200.092566,253.349546 C200.092566,231.300416 183.441976,237.264464 183.936736,232.880836 C187.155442,204.362722 219.953058,231.705665 219.953058,231.705665 Z" id="path-31"></path>
        <mask id="mask-32" maskContentUnits="userSpaceOnUse" maskUnits="objectBoundingBox" x="0" y="0" width="110.931715" height="128.286904" fill="white">
            <use xlink:href="#path-31"></use>
        </mask>
        <path d="M197.528823,255.332474 C198.15047,254.415513 199.555632,253.672169 200.645515,253.672169 L206.620733,253.672169 C207.720387,253.672169 208.130739,254.418917 207.526846,255.362805 L189.516549,286.583458 C189.063923,287.591887 188.355869,289.231519 187.955283,290.273239 L182.214179,321.156291 C182.12832,322.255505 181.157502,323.146593 180.067618,323.146593 L174.0924,323.146593 C172.992746,323.146593 172.212775,322.265754 172.356978,321.163764 L178.141121,290.323125 C178.47164,289.266194 179.036978,287.563741 179.434173,286.532126 L197.528823,255.332474 Z" id="path-33"></path>
        <mask id="mask-34" maskContentUnits="userSpaceOnUse" maskUnits="objectBoundingBox" x="0" y="0" width="35.4659682" height="69.4744243" fill="white">
            <use xlink:href="#path-33"></use>
        </mask>
        <path d="M197.786924,261.593188 C198.266026,260.604089 199.419223,259.331426 200.354842,258.755429 L206.911406,254.719005 C207.850526,254.140853 208.130739,254.418917 207.526846,255.362805 L189.516549,286.583458 C189.063923,287.591887 188.355869,289.231519 187.955283,290.273239 L182.214179,321.156291 C182.12832,322.255505 181.157502,323.146593 180.067618,323.146593 L174.0924,323.146593 C172.992746,323.146593 172.462759,322.327606 172.908653,321.311717 L184.730355,292.331491 C185.087961,291.293889 185.66358,289.614296 186.03171,288.573105 L197.786924,261.593188 Z" id="path-35"></path>
        <mask id="mask-36" maskContentUnits="userSpaceOnUse" maskUnits="objectBoundingBox" x="0" y="0" width="35.095203" height="68.7281557" fill="white">
            <use xlink:href="#path-35"></use>
        </mask>
        <path d="M155.286176,173.838959 C155.614704,172.788841 156.782245,171.937552 157.872128,171.937552 L163.847346,171.937552 C164.947,171.937552 165.585909,172.789015 165.269176,173.861961 L146.317238,245.593916 C146.099843,246.669853 145.751674,248.428161 145.549699,249.510114 L139.352602,321.159529 C139.315449,322.256955 138.384114,323.146593 137.294231,323.146593 L131.319013,323.146593 C130.219359,323.146593 129.379601,322.247808 129.444094,321.150007 L135.675809,249.495892 C135.836183,248.416827 136.106536,246.651695 136.286003,245.569338 L155.286176,173.838959 Z" id="path-37"></path>
        <mask id="mask-38" maskContentUnits="userSpaceOnUse" maskUnits="objectBoundingBox" x="0" y="0" width="35.9097049" height="151.209041" fill="white">
            <use xlink:href="#path-37"></use>
        </mask>
        <path d="M170.498087,160.898905 C170.498087,160.898905 147.176086,114.780321 158.910379,114.780321 C162.21351,114.780321 179.831324,131.813457 189.512024,139.033307 C199.192725,146.253156 216.492886,120.905684 218.170825,128.058892 C222.221283,145.326362 201.557852,169.570125 201.557852,169.570125 C201.557852,169.570125 227.125108,158.131111 228.517489,163.445366 C228.895294,164.887321 196.165924,174.469931 201.557852,187.9444 C202.982873,191.505539 239.009336,167.690327 241.997308,176.919835 C242.892102,179.683751 203.187863,196.566743 201.557852,208.768578 C199.927841,220.970413 190.773997,243.067226 190.773997,243.067226 C190.773997,243.067226 178.961257,241.589293 174.598214,214.893337 C170.235171,188.197381 139.550686,200.883356 139.550686,196.519062 C139.550686,170.279137 158.422432,196.376387 158.422432,191.619255 C158.422432,169.570125 128.272071,187.428221 128.766831,183.044593 C131.985537,154.526479 170.498087,160.898905 170.498087,160.898905 Z" id="path-39"></path>
        <mask id="mask-40" maskContentUnits="userSpaceOnUse" maskUnits="objectBoundingBox" x="0" y="0" width="113.251398" height="128.286904" fill="white">
            <use xlink:href="#path-39"></use>
        </mask>
        <path d="M190.796322,175.98764 C190.796322,175.98764 148.181897,114.705684 159.91619,114.705684 C163.21932,114.705684 186.516471,141.709414 196.197172,148.929263 C205.877873,156.149113 217.498696,120.831047 219.176635,127.984255 C223.227093,145.251725 199.923592,173.683792 199.923592,173.683792 C199.923592,173.683792 228.130918,158.056474 229.5233,163.370729 C229.901104,164.812684 196.171731,180.147352 201.563659,193.621821 C202.98868,197.18296 240.015146,167.61569 243.003118,176.845198 C243.897912,179.609114 204.193673,196.492107 202.563662,208.693942 C200.933651,220.895776 191.779807,242.992589 191.779807,242.992589 C191.779807,242.992589 179.967068,241.514656 175.604025,214.8187 C171.240982,188.122744 132.086301,201.988763 132.086301,197.624469 C132.086301,171.384544 170.93583,202.388653 170.93583,197.631521 C170.93583,175.58239 154.28524,181.546439 154.779999,177.162811 C157.998705,148.644697 190.796322,175.98764 190.796322,175.98764 Z" id="path-41"></path>
        <mask id="mask-42" maskContentUnits="userSpaceOnUse" maskUnits="objectBoundingBox" x="0" y="0" width="110.931715" height="128.286904" fill="white">
            <use xlink:href="#path-41"></use>
        </mask>
        <path d="M161.790421,173.838959 C162.118949,172.788841 162.618669,172.799665 162.90754,173.866694 L165.182146,182.268603 C165.470586,183.334038 165.378677,185.029293 164.979941,186.058061 L146.187307,245.596027 C145.967646,246.670799 145.618887,248.427393 145.42162,249.506448 L142.404849,319.104341 C142.441072,320.208296 141.616188,321.366179 140.550372,321.694254 L137.752223,322.555567 C136.6918,322.881982 135.883846,322.247808 135.948339,321.150007 L142.180054,249.495892 C142.340428,248.416827 142.610782,246.651695 142.790249,245.569338 L161.790421,173.838959 Z" id="path-43"></path>
        <mask id="mask-44" maskContentUnits="userSpaceOnUse" maskUnits="objectBoundingBox" x="0" y="0" width="29.4057154" height="149.582539" fill="white">
            <use xlink:href="#path-43"></use>
        </mask>
        <path d="M178.520152,192.229248 C178.84868,191.17913 180.01622,190.327841 181.106104,190.327841 L187.081322,190.327841 C188.180976,190.327841 188.819885,191.179303 188.503152,192.25225 L169.551213,263.984205 C169.333819,265.060142 168.98565,266.818449 168.783674,267.900403 L162.586578,339.549818 C162.549425,340.647243 161.61809,341.536882 160.528207,341.536882 L154.552989,341.536882 C153.453335,341.536882 152.613576,340.638096 152.67807,339.540296 L158.909784,267.886181 C159.070159,266.807116 159.340512,265.041984 159.519979,263.959627 L178.520152,192.229248 Z" id="path-45"></path>
        <mask id="mask-46" maskContentUnits="userSpaceOnUse" maskUnits="objectBoundingBox" x="0" y="0" width="35.9097049" height="151.209041" fill="white">
            <use xlink:href="#path-45"></use>
        </mask>
        <path d="M178.67946,193.296466 C179.007987,192.246348 180.175528,191.395059 181.265412,191.395059 L187.24063,191.395059 C188.340284,191.395059 188.875726,192.206466 188.430005,193.230345 L163.083919,263.900493 C162.860076,264.97531 162.507925,266.729306 162.30714,267.817973 L159.284466,330.401374 C159.325892,331.498156 158.871347,333.138541 158.270732,334.062934 L153.80994,340.92844 C153.208643,341.853881 152.772884,341.705315 152.837378,340.607514 L159.069092,268.953399 C159.229466,267.874334 159.49982,266.109202 159.679287,265.026845 L178.67946,193.296466 Z" id="path-47"></path>
        <mask id="mask-48" maskContentUnits="userSpaceOnUse" maskUnits="objectBoundingBox" x="0" y="0" width="35.7560951" height="150.141823" fill="white">
            <use xlink:href="#path-47"></use>
        </mask>
    </defs>
    <g id="Page-1" stroke="none" stroke-width="1" fill="none" fill-rule="evenodd">
        <g id="carrot" transform="translate(-34.000000, -5.000000)">
            <g id="stem" stroke-width="2">
                <use id="Rectangle-2" stroke="#0DA14E" mask="url(#mask-2)" fill="#0DA14E" transform="translate(200.623388, 114.518109) scale(-1, 1) rotate(-4.000000) translate(-200.623388, -114.518109) " xlink:href="#path-1"></use>
                <use id="Rectangle-2" stroke="#13CE66" mask="url(#mask-4)" fill="#13CE66" transform="translate(216.927387, 115.341225) scale(-1, 1) rotate(-4.000000) translate(-216.927387, -115.341225) " xlink:href="#path-3"></use>
                <use id="Rectangle-2" stroke="#0DA14E" mask="url(#mask-6)" fill="#0DA14E" transform="translate(102.283711, 189.617380) rotate(-20.000000) translate(-102.283711, -189.617380) " xlink:href="#path-5"></use>
                <use id="Rectangle-2" stroke="#13CE66" mask="url(#mask-8)" fill="#13CE66" transform="translate(103.687039, 189.248616) rotate(-20.000000) translate(-103.687039, -189.248616) " xlink:href="#path-7"></use>
                <use id="Rectangle" stroke="#13CE66" mask="url(#mask-10)" fill="#13CE66" transform="translate(137.886334, 270.550367) scale(-1, 1) translate(-137.886334, -270.550367) " xlink:href="#path-9"></use>
                <use id="Rectangle" stroke="#0DA14E" mask="url(#mask-12)" fill="#0DA14E" transform="translate(137.674857, 270.957647) scale(-1, 1) translate(-137.674857, -270.957647) " xlink:href="#path-11"></use>
                <use id="Rectangle" stroke="#13CE66" mask="url(#mask-14)" fill="#13CE66" xlink:href="#path-13"></use>
                <use id="Rectangle-2" stroke="#0DA14E" mask="url(#mask-16)" fill="#0DA14E" transform="translate(144.017173, 105.227100) scale(-1, 1) rotate(6.000000) translate(-144.017173, -105.227100) " xlink:href="#path-15"></use>
                <use id="Rectangle-2" stroke="#13CE66" mask="url(#mask-18)" fill="#13CE66" transform="translate(141.228719, 105.114398) scale(-1, 1) rotate(6.000000) translate(-141.228719, -105.114398) " xlink:href="#path-17"></use>
                <use id="Rectangle" stroke="#0DA14E" mask="url(#mask-20)" fill="#0DA14E" xlink:href="#path-19"></use>
                <use id="Rectangle" stroke="#13CE66" mask="url(#mask-22)" fill="#13CE66" transform="translate(163.092116, 236.610068) scale(1, -1) translate(-163.092116, -236.610068) " xlink:href="#path-21"></use>
                <use id="Rectangle" stroke="#0DA14E" mask="url(#mask-24)" fill="#0DA14E" transform="translate(163.016408, 237.158238) scale(1, -1) translate(-163.016408, -237.158238) " xlink:href="#path-23"></use>
                <use id="Rectangle-2" stroke="#0DA14E" mask="url(#mask-26)" fill="#0DA14E" transform="translate(141.423304, 185.076760) rotate(-4.000000) translate(-141.423304, -185.076760) " xlink:href="#path-25"></use>
                <use id="Rectangle-2" stroke="#13CE66" mask="url(#mask-28)" fill="#13CE66" transform="translate(128.760808, 185.621869) rotate(-4.000000) translate(-128.760808, -185.621869) " xlink:href="#path-27"></use>
                <use id="Rectangle-2" stroke="#0DA14E" mask="url(#mask-30)" fill="#0DA14E" transform="translate(217.798789, 234.811376) scale(-1, 1) rotate(-20.000000) translate(-217.798789, -234.811376) " xlink:href="#path-29"></use>
                <use id="Rectangle-2" stroke="#13CE66" mask="url(#mask-32)" fill="#13CE66" transform="translate(216.708895, 234.567162) scale(-1, 1) rotate(-20.000000) translate(-216.708895, -234.567162) " xlink:href="#path-31"></use>
                <use id="Rectangle" stroke="#13CE66" mask="url(#mask-34)" fill="#13CE66" xlink:href="#path-33"></use>
                <use id="Rectangle" stroke="#0DA14E" mask="url(#mask-36)" fill="#0DA14E" xlink:href="#path-35"></use>
                <use id="Rectangle" stroke="#13CE66" mask="url(#mask-38)" fill="#13CE66" transform="translate(147.395467, 247.542073) scale(-1, 1) translate(-147.395467, -247.542073) " xlink:href="#path-37"></use>
                <use id="Rectangle-2" stroke="#0DA14E" mask="url(#mask-40)" fill="#0DA14E" transform="translate(185.386507, 178.923773) rotate(6.000000) translate(-185.386507, -178.923773) " xlink:href="#path-39"></use>
                <use id="Rectangle-2" stroke="#13CE66" mask="url(#mask-42)" fill="#13CE66" transform="translate(187.552158, 178.849136) rotate(6.000000) translate(-187.552158, -178.849136) " xlink:href="#path-41"></use>
                <use id="Rectangle" stroke="#0DA14E" mask="url(#mask-44)" fill="#0DA14E" transform="translate(150.647589, 247.850100) scale(-1, 1) translate(-150.647589, -247.850100) " xlink:href="#path-43"></use>
                <use id="Rectangle" stroke="#13CE66" mask="url(#mask-46)" fill="#13CE66" transform="translate(170.629443, 265.932362) scale(-1, -1) translate(-170.629443, -265.932362) " xlink:href="#path-45"></use>
                <use id="Rectangle" stroke="#0DA14E" mask="url(#mask-48)" fill="#0DA14E" transform="translate(170.709097, 266.465971) scale(-1, -1) translate(-170.709097, -266.465971) " xlink:href="#path-47"></use>
            </g>
            <g id="root" transform="translate(78.000000, 292.000000)">
                <path d="M87.0468188,425.781788 C114.743534,425.781788 174.093638,98.9153788 174.093638,63.7224445 C174.093638,32.3667407 143.156727,6.30059769 102.408784,0.989170206 C97.4221549,0.33917134 104.85185,5.7929495 87.0468188,5.7929495 C75.1767981,5.7929495 81.1898078,0.107104434 78.3194311,0.316283617 C34.3427488,3.52109169 7.10542736e-14,30.6858244 7.10542736e-14,63.7224445 C7.10542736e-14,98.9153788 59.3501038,425.781788 87.0468188,425.781788 Z" id="Oval" stroke="#FF7849" fill="#FF7849"></path>
                <path d="M87.0468188,425.781788 C114.743534,425.781788 174.093638,98.9153788 174.093638,63.7224445 C174.093638,31.0097962 146.229491,4.00833411 102.873513,0.371361136 C99.5862457,0.0956043976 98.9168396,5.7929495 87.0468188,4.34471212 C75.1767981,2.89647475 81.310403,0.125924383 79.3468655,0.371361136 C51.7553694,3.82022166 138.483575,30.867611 138.483575,63.7224445 C138.483575,69.5696321 104.503463,57.4404934 102.873513,72.4118687 C102.605099,74.8772975 136.72938,63.1080932 136.505239,76.7565808 C136.48058,78.2581167 140.537482,101.752102 132.548565,105.721328 C124.559648,109.690554 112.27818,102.947009 110.78686,114.410753 C110.161476,119.218066 133.252597,102.570734 132.548565,123.100177 C132.496754,124.610972 87.0468188,123.100177 87.0468188,127.444889 C87.0468188,131.789601 132.844513,127.519054 132.548565,131.789601 C132.435481,133.42142 132.123254,180.311592 120.678544,228.821505 C109.233834,277.331419 97.5907625,254.975669 96.9385028,259.23449 C96.4897724,262.1644 111.177074,263.346807 110.78686,266.475677 C110.396647,269.604547 90.5924042,405.88266 87.0468188,425.781788 Z" id="Oval" stroke="#FF571C" fill="#FF571C"></path>
            </g>
        </g>
    </g>
</svg>