<?xml version="1.0" encoding="UTF-8" standalone="no"?>
<svg width="204px" height="206px" viewBox="0 0 204 206" version="1.1" xmlns="http://www.w3.org/2000/svg" xmlns:xlink="http://www.w3.org/1999/xlink">
    <!-- Generator: Sketch 41.2 (35397) - http://www.bohemiancoding.com/sketch -->
    <title>Slice 3</title>
    <desc>Created with Sketch.</desc>
    <defs></defs>
    <g id="Page-3" stroke="none" stroke-width="1" fill="none" fill-rule="evenodd">
        <g id="cucumber" transform="translate(1.000000, 1.000000)">
            <g id="cucumber-outer" stroke="#979797" fill="#417505">
                <path d="M21.0369936,43.9213618 C25.2104002,38.6231427 48.2651685,24.2534935 50.7460938,20.7226563 C60.2981802,7.12818646 85.7791987,6.32199835 100.959248,1.19921875 C120.08195,-5.25407989 162.058594,20.7226563 162.058594,20.7226563 L181.148474,31.8861869 L201.699219,73.2851563 L201.699219,131.628906 C201.699219,131.628906 180.167439,174.796546 180.167439,174.796546 L154.416314,191.398273 L92.125,204.34375 L32.9253124,177.471465 C32.9253124,177.471465 29.4711063,175.986361 21.0369936,158.410156 C12.6028809,140.833952 32.9253124,177.471465 32.9253124,177.471465 C32.9253124,177.471465 3.61755189,131.279625 3.09275192,117.070313 C2.56795194,102.861 -3.10171985,98.2666046 3.09275192,86.6601563 C20.4035257,54.2253321 16.0804644,50.21377 21.0369936,43.9213618 Z" id="Combined-Shape"></path>
            </g>
            <ellipse id="cucumber-inner" fill-opacity="0.695001132" fill="#D0E986" cx="104.5" cy="102.5" rx="92.5" ry="90.5"></ellipse>
            <g id="seeds" transform="translate(33.000000, 46.000000)" fill="#E3DEA5">
                <g id="Group-2" transform="translate(66.500000, 81.000000) scale(1, -1) rotate(-17.000000) translate(-66.500000, -81.000000) translate(7.000000, 51.000000)">
                    <path d="M5.61241094,18.824175 C1.46253543,31.5723622 11.3138536,35.2278449 11.3138536,35.2278449 L23.4372271,42.5244938 L21.2760506,26.8766368 C21.2760506,26.8766368 18.9390933,17.2955024 14.4506536,15.8073968 C9.96221397,14.3192912 6.67310009,15.5657968 5.61241094,18.824175 Z" id="Path-3" transform="translate(14.014724, 28.854572) rotate(-23.000000) translate(-14.014724, -28.854572) "></path>
                    <path d="M76.1827398,9.51389615 C72.0328643,22.2620833 81.8841825,25.9175661 81.8841825,25.9175661 L94.007556,33.2142149 L91.8463794,17.5663579 C91.8463794,17.5663579 89.5094221,7.98522359 85.0209825,6.49711797 C80.5325428,5.00901236 77.2434289,6.25551794 76.1827398,9.51389615 Z" id="Path-3" transform="translate(84.585053, 19.544293) rotate(68.000000) translate(-84.585053, -19.544293) "></path>
                    <path d="M93.714011,35.0226697 C89.5641355,47.7708569 99.4154537,51.4263397 99.4154537,51.4263397 L111.538827,58.7229885 L109.377651,43.0751315 C109.377651,43.0751315 107.040693,33.4939972 102.552254,32.0058916 C98.063814,30.5177859 94.7747002,31.7642915 93.714011,35.0226697 Z" id="Path-3" transform="translate(102.116324, 45.053067) rotate(119.000000) translate(-102.116324, -45.053067) "></path>
                    <path d="M38.7914324,5.61310324 C34.6404572,18.3612904 44.494386,22.0167732 44.494386,22.0167732 L56.6209722,29.313422 L54.459223,13.665565 C54.459223,13.665565 52.1216464,4.08443068 47.6320173,2.59632506 C43.1423882,1.10821945 39.8524027,2.35472503 38.7914324,5.61310324 Z" id="Path-3" transform="translate(47.195972, 15.643500) rotate(15.000000) translate(-47.195972, -15.643500) "></path>
                </g>
                <g id="Group-3" transform="translate(16.000000, 0.000000)">
                    <path d="M6.02019021,19.639525 C1.8703147,32.3877122 11.7216329,36.0431949 11.7216329,36.0431949 L23.8450064,43.3398437 L21.6838299,27.6919868 C21.6838299,27.6919868 19.3468726,18.1108524 14.8584329,16.6227468 C10.3699932,15.1346412 7.08087936,16.3811468 6.02019021,19.639525 Z" id="Path-3" transform="translate(14.422503, 29.669922) rotate(-23.000000) translate(-14.422503, -29.669922) "></path>
                    <path d="M76.590519,10.3292461 C72.4406435,23.0774333 82.2919618,26.7329161 82.2919618,26.7329161 L94.4153352,34.0295649 L92.2541587,18.3817079 C92.2541587,18.3817079 89.9172014,8.80057358 85.4287617,7.31246796 C80.9403221,5.82436235 77.6512082,7.07086794 76.590519,10.3292461 Z" id="Path-3" transform="translate(84.992832, 20.359643) rotate(68.000000) translate(-84.992832, -20.359643) "></path>
                    <path d="M94.1217903,35.8380197 C89.9719148,48.5862069 99.823233,52.2416897 99.823233,52.2416897 L111.946606,59.5383385 L109.78543,43.8904815 C109.78543,43.8904815 107.448473,34.3093472 102.960033,32.8212415 C98.4715933,31.3331359 95.1824794,32.5796415 94.1217903,35.8380197 Z" id="Path-3" transform="translate(102.524103, 45.868417) rotate(119.000000) translate(-102.524103, -45.868417) "></path>
                    <path d="M39.1992117,6.42845323 C35.0482365,19.1766404 44.9021653,22.8321232 44.9021653,22.8321232 L57.0287515,30.128772 L54.8670023,14.480915 C54.8670023,14.480915 52.5294257,4.89978067 48.0397966,3.41167505 C43.5501674,1.92356944 40.2601819,3.17007502 39.1992117,6.42845323 Z" id="Path-3" transform="translate(47.603751, 16.458850) rotate(15.000000) translate(-47.603751, -16.458850) "></path>
                </g>
            </g>
        </g>
    </g>
</svg>