<?xml version="1.0" encoding="UTF-8" standalone="no"?>
<svg width="195px" height="538px" viewBox="0 0 195 538" version="1.1" xmlns="http://www.w3.org/2000/svg" xmlns:xlink="http://www.w3.org/1999/xlink">
    <!-- Generator: Sketch 41.2 (35397) - http://www.bohemiancoding.com/sketch -->
    <title>Slice 6</title>
    <desc>Created with Sketch.</desc>
    <defs></defs>
    <g id="Page-3" stroke="none" stroke-width="1" fill="none" fill-rule="evenodd">
        <g id="cucumber-whole" transform="translate(97.500000, 269.000000) scale(-1, 1) translate(-97.500000, -269.000000) ">
            <path d="M109.145763,537.796875 C137.265052,537.796875 150.599842,504.58079 156.179688,477.851563 C168.856014,417.127943 179,365.372437 179,318.869141 C179,289.152341 198.184098,92.3884143 193.202066,65.640625 C188.220033,38.8928357 176.491076,0 109.145763,0 C78.1258245,0 71.0725553,2.64785251 58.609375,22.96875 C46.1461947,43.2896475 31.6912676,76.9878674 24.453125,117.875 C12.2582401,186.761992 6.40773694,187.747779 4.98779127,207.064453 C3.5678456,226.381127 3.05791535,220.374296 2.73445248,226.791016 C2.03265322,240.713012 1.26951248,250.629784 0.57542996,259.498047 C-0.118652561,268.366309 -0.261643437,300.568351 0.57542996,318.869141 C1.56815868,340.572995 9.27101492,404.447094 15.4140625,420.070312 C24.9346209,444.283337 30.2563323,485.391811 47.5,512.460938 C64.7436677,539.530064 86.0020674,537.796875 109.145763,537.796875 Z" id="Oval" fill="#417505"></path>
            <path d="M78.6875,532.757812 C88.7440975,532.757812 67.4768617,357.137663 60.8515625,340.203125 C54.2262633,323.268587 45.8187519,290.542852 45.8187519,257 C45.8187519,194.777037 82.0945718,103.376612 88.484375,59.0546875 C94.8741782,14.7327634 98.2459135,0.671875 88.484375,0.671875 C87.1203428,0.671875 75.1769639,4.82073658 69.6484375,10.0078125 C64.1199111,15.1948884 65.7006636,20.8172376 60.8515625,22.6796875 C57.4979545,26.8366485 47.4528286,41.508369 45.8187519,47.125 C41.87366,60.685028 36.5333906,67.4545694 32.1796875,79.140625 C19.8495987,112.236613 7.01743911,210.923387 4.328125,244.917969 C-1.55614274,319.298727 4.328125,284.52674 4.328125,312.648438 C4.328125,376.124579 14.0806557,449.229055 32.1796875,488.085938 C50.2787193,526.94282 69.1632747,532.757812 78.6875,532.757812 Z" id="Oval-4" fill="#2E5204" style="mix-blend-mode: soft-light;"></path>
            <g id="freckles" transform="translate(18.000000, 31.000000)" fill="#2A4905">
                <ellipse id="Oval-5" style="mix-blend-mode: soft-light;" cx="80" cy="37.4298551" rx="8" ry="6.97844755"></ellipse>
                <ellipse id="Oval-5" style="mix-blend-mode: soft-light;" cx="117" cy="76.7629231" rx="8" ry="6.97844755"></ellipse>
                <ellipse id="Oval-5" style="mix-blend-mode: soft-light;" cx="79" cy="67.8812626" rx="8" ry="6.97844755"></ellipse>
                <ellipse id="Oval-5" style="mix-blend-mode: soft-light;" cx="99" cy="55.1931761" rx="8" ry="6.97844755"></ellipse>
                <ellipse id="Oval-5" style="mix-blend-mode: soft-light;" cx="86" cy="6.97844755" rx="8" ry="6.97844755"></ellipse>
                <ellipse id="Oval-5" style="mix-blend-mode: soft-light;" cx="118" cy="42.5050896" rx="8" ry="6.97844755"></ellipse>
                <ellipse id="Oval-5" style="mix-blend-mode: soft-light;" cx="128" cy="107.214331" rx="8" ry="6.97844755"></ellipse>
                <ellipse id="Oval-5" style="mix-blend-mode: soft-light;" cx="90" cy="100.870287" rx="8" ry="6.97844755"></ellipse>
                <ellipse id="Oval-5" style="mix-blend-mode: soft-light;" cx="60" cy="132.590504" rx="8" ry="6.97844755"></ellipse>
                <ellipse id="Oval-5" style="mix-blend-mode: soft-light;" cx="99" cy="149.085016" rx="8" ry="6.97844755"></ellipse>
                <ellipse id="Oval-5" style="mix-blend-mode: soft-light;" cx="139" cy="183.342849" rx="8" ry="6.97844755"></ellipse>
                <ellipse id="Oval-5" style="mix-blend-mode: soft-light;" cx="79" cy="189.686893" rx="8" ry="6.97844755"></ellipse>
                <ellipse id="Oval-5" style="mix-blend-mode: soft-light;" cx="110" cy="227.751152" rx="8" ry="6.97844755"></ellipse>
                <ellipse id="Oval-5" style="mix-blend-mode: soft-light;" cx="143" cy="253.127325" rx="8" ry="6.97844755"></ellipse>
                <ellipse id="Oval-5" style="mix-blend-mode: soft-light;" cx="74" cy="275.965881" rx="8" ry="6.97844755"></ellipse>
                <ellipse id="Oval-5" style="mix-blend-mode: soft-light;" cx="51" cy="213.794257" rx="8" ry="6.97844755"></ellipse>
                <ellipse id="Oval-5" style="mix-blend-mode: soft-light;" cx="37" cy="69.1500712" rx="8" ry="6.97844755"></ellipse>
                <ellipse id="Oval-5" style="mix-blend-mode: soft-light;" cx="28" cy="127.515269" rx="8" ry="6.97844755"></ellipse>
                <ellipse id="Oval-5" style="mix-blend-mode: soft-light;" cx="27" cy="171.923572" rx="8" ry="6.97844755"></ellipse>
                <ellipse id="Oval-5" style="mix-blend-mode: soft-light;" cx="8" cy="245.514473" rx="8" ry="6.97844755"></ellipse>
                <ellipse id="Oval-5" style="mix-blend-mode: soft-light;" cx="31" cy="311.492523" rx="8" ry="6.97844755"></ellipse>
                <ellipse id="Oval-5" style="mix-blend-mode: soft-light;" cx="118" cy="466.287177" rx="8" ry="6.97844755"></ellipse>
                <ellipse id="Oval-5" style="mix-blend-mode: soft-light;" cx="109" cy="301.342053" rx="8" ry="6.97844755"></ellipse>
                <ellipse id="Oval-5" style="mix-blend-mode: soft-light;" cx="81" cy="364.782486" rx="8" ry="6.97844755"></ellipse>
                <ellipse id="Oval-5" style="mix-blend-mode: soft-light;" cx="134" cy="367.320103" rx="8" ry="6.97844755"></ellipse>
                <ellipse id="Oval-5" style="mix-blend-mode: soft-light;" cx="79" cy="428.222918" rx="8" ry="6.97844755"></ellipse>
                <ellipse id="Oval-5" style="mix-blend-mode: soft-light;" cx="80" cy="37.4298551" rx="8" ry="6.97844755"></ellipse>
            </g>
        </g>
    </g>
</svg>