<?xml version="1.0" encoding="UTF-8" standalone="no"?>
<svg width="126px" height="266px" viewBox="0 0 126 266" version="1.1" xmlns="http://www.w3.org/2000/svg" xmlns:xlink="http://www.w3.org/1999/xlink">
    <!-- Generator: Sketch 41.2 (35397) - http://www.bohemiancoding.com/sketch -->
    <title>Slice 3</title>
    <desc>Created with Sketch.</desc>
    <defs>
        <path d="M29.1845166,21.7761523 C29.1845166,21.7761523 14.9851966,2.70472368 22.3845166,2.70472368 C29.7838365,2.70472368 49.5845166,14.6243665 49.5845166,14.6243665 C49.5845166,14.6243665 65.7065194,3.49340014 66.5845166,8.66454511 C66.8227498,10.0676684 46.1845166,19.3922237 49.5845166,32.5038308 C50.4830956,35.9690706 73.2003843,12.7951914 75.0845166,21.7761523 C75.6487486,24.4656376 50.6123563,40.8939786 49.5845166,52.7672237 C48.5566768,64.6404687 42.7845166,86.1422237 42.7845166,86.1422237 C42.7845166,86.1422237 35.3357306,84.7040912 32.5845166,58.7270451 C29.8333026,32.749999 10.4845166,45.0943464 10.4845166,40.8475808 C10.4845166,15.3142855 22.3845166,40.7087488 22.3845166,36.0797237 C22.3845166,14.6243665 3.37253495,32.0015523 3.68451658,27.7359737 C5.71414321,-0.0141604202 29.1845166,21.7761523 29.1845166,21.7761523 Z" id="path-1"></path>
        <mask id="mask-2" maskContentUnits="userSpaceOnUse" maskUnits="objectBoundingBox" x="0" y="0" width="71.4131922" height="83.4375" fill="white">
            <use xlink:href="#path-1"></use>
        </mask>
        <path d="M31.1221096,29.3984312 C31.1221096,29.3984312 15.0010335,3.02270442 22.4003535,3.02270442 C29.7996734,3.02270442 42.3561511,19.2798534 42.3561511,19.2798534 C42.3561511,19.2798534 56.9902962,9.24348476 62.0778729,9.49292643 C63.0877309,9.54243933 37.1601765,24.1764655 40.5601765,37.2880727 C41.4587556,40.7533124 45.4468617,32.0505559 47.3309939,41.0315168 C47.895226,43.7210021 46.8420569,41.0326542 45.8142172,52.9058993 C44.7863774,64.7791443 42.8003535,86.4602044 42.8003535,86.4602044 C42.8003535,86.4602044 35.3515675,85.022072 32.6003535,59.0450258 C29.8491395,33.0679797 10.5003535,45.4123271 10.5003535,41.1655616 C10.5003535,15.6322662 24.958873,44.5636465 24.958873,39.9346214 C24.958873,18.4792642 3.38837186,32.319533 3.70035348,28.0539544 C5.72998012,0.303820314 31.1221096,29.3984312 31.1221096,29.3984312 Z" id="path-3"></path>
        <mask id="mask-4" maskContentUnits="userSpaceOnUse" maskUnits="objectBoundingBox" x="0" y="0" width="58.4096471" height="83.4375" fill="white">
            <use xlink:href="#path-3"></use>
        </mask>
        <path d="M70.8798189,62.9208437 C70.8798189,62.9208437 58.9347343,36.0183113 64.9448158,36.0183113 C66.6366164,36.0183113 75.660125,45.9543167 80.6183956,50.1658996 C85.5766662,54.3774826 94.4374789,39.591443 95.2968874,43.7641514 C97.3714548,53.8368522 86.788039,67.9790601 86.788039,67.9790601 C86.788039,67.9790601 99.8831006,61.3062957 100.596252,64.406281 C100.789756,65.2474219 84.0263964,70.8372834 86.788039,78.6973975 C87.5179078,80.7747309 105.969976,66.8825107 107.500358,72.2663951 C107.958655,73.8786811 87.6228996,83.7271027 86.788039,90.8448464 C85.9531784,97.9625902 81.2647538,110.852409 81.2647538,110.852409 C81.2647538,110.852409 75.2144936,109.990281 72.9798261,94.4176256 C70.7451585,78.8449698 55.0291493,86.2451288 55.0291493,83.6992882 C55.0291493,68.392651 64.6948983,83.6160615 64.6948983,80.8410649 C64.6948983,67.9790601 49.2524577,78.3962927 49.5058641,75.8391742 C51.1544239,59.2035919 70.8798189,62.9208437 70.8798189,62.9208437 Z" id="path-5"></path>
        <mask id="mask-6" maskContentUnits="userSpaceOnUse" maskUnits="objectBoundingBox" x="0" y="0" width="58.0052096" height="74.8340982" fill="white">
            <use xlink:href="#path-5"></use>
        </mask>
        <path d="M79.6087595,71.6236941 C79.6087595,71.6236941 57.7824624,35.8758529 63.7925439,35.8758529 C65.4843446,35.8758529 77.4167017,51.6280433 82.3749723,55.8396262 C87.3332429,60.0512091 93.2852071,39.4489847 94.1446156,43.621693 C96.2191829,53.6943938 84.2835737,70.2797816 84.2835737,70.2797816 C84.2835737,70.2797816 98.7308288,61.1638373 99.44398,64.2638226 C99.6374844,65.1049635 82.3619419,74.0501952 85.1235845,81.9103092 C85.8534534,83.9876426 104.817704,66.7400523 106.348086,72.1239367 C106.806383,73.7362227 86.4706277,83.5846443 85.6357671,90.702388 C84.8009065,97.8201318 80.112482,110.709951 80.112482,110.709951 C80.112482,110.709951 74.0622218,109.847823 71.8275542,94.2751672 C69.5928867,78.7025114 49.5386047,86.79103 49.5386047,84.2451895 C49.5386047,68.9385523 69.4365937,87.0242996 69.4365937,84.249303 C69.4365937,71.3872982 60.9084786,74.8663298 61.161885,72.3092113 C62.8104448,55.673629 79.6087595,71.6236941 79.6087595,71.6236941 Z" id="path-7"></path>
        <mask id="mask-8" maskContentUnits="userSpaceOnUse" maskUnits="objectBoundingBox" x="0" y="0" width="56.8171122" height="74.8340982" fill="white">
            <use xlink:href="#path-7"></use>
        </mask>
        <path d="M67.6825262,86.1567366 C68.2444615,85.2072284 69.5883522,84.4375 70.7010174,84.4375 L71.7989826,84.4375 C72.904114,84.4375 73.363628,85.210864 72.8208124,86.1825631 L64.3410293,102.866945 C63.9317701,103.879807 63.2997336,105.546432 62.968257,106.604233 L60.345289,122.966526 C60.2650481,124.069858 59.3116478,124.964286 58.1989826,124.964286 L57.1010174,124.964286 C55.995886,124.964286 55.1989139,124.084181 55.3295338,122.975066 L57.9948793,106.616763 C58.2738498,105.558657 58.7717648,103.848095 59.1453908,102.81871 L67.6825262,86.1567366 Z" id="path-9"></path>
        <mask id="mask-10" maskContentUnits="userSpaceOnUse" maskUnits="objectBoundingBox" x="0" y="0" width="17.7334203" height="40.5267857" fill="white">
            <use xlink:href="#path-9"></use>
        </mask>
        <path d="M67.9199628,89.8566687 C68.3507655,88.8386556 69.4307057,87.5010546 70.3417448,86.8622745 L72.1582552,85.5886183 C73.0649658,84.9528732 73.363628,85.210864 72.8208124,86.1825631 L64.3410293,102.866945 C63.9317701,103.879807 63.2997336,105.546432 62.968257,106.604233 L60.345289,122.966526 C60.2650481,124.069858 59.3116478,124.964286 58.1989826,124.964286 L57.1010174,124.964286 C55.995886,124.964286 55.4231469,124.128766 55.8186665,123.097976 L61.3147851,107.792837 C61.6379904,106.743507 62.1578447,105.041881 62.4992662,103.977268 L67.9199628,89.8566687 Z" id="path-11"></path>
        <mask id="mask-12" maskContentUnits="userSpaceOnUse" maskUnits="objectBoundingBox" x="0" y="0" width="17.3983428" height="39.7234069" fill="white">
            <use xlink:href="#path-11"></use>
        </mask>
        <path d="M46.4138612,38.6744515 C46.7034155,37.6165374 47.8264978,36.7589286 48.939163,36.7589286 L50.0371282,36.7589286 C51.1422596,36.7589286 51.8129882,37.6249652 51.5377333,38.6905941 L42.1907876,78.9024743 C41.9960288,79.9844735 41.6896521,81.7439976 41.5160382,82.8445598 L38.4999772,122.962166 C38.4658286,124.067906 37.5497934,124.964286 36.4371282,124.964286 L35.339163,124.964286 C34.2340316,124.964286 33.3834893,124.072749 33.4414635,122.965605 L36.4867286,82.8314609 C36.6255824,81.7435407 36.8630272,79.9742396 37.0278047,78.8917534 L46.4138612,38.6744515 Z" id="path-13"></path>
        <mask id="mask-14" maskContentUnits="userSpaceOnUse" maskUnits="objectBoundingBox" x="0" y="0" width="18.1608111" height="88.2053571" fill="white">
            <use xlink:href="#path-13"></use>
        </mask>
        <path d="M54.2788649,30.3197114 C54.2788649,30.3197114 42.3337803,3.41717898 48.3438618,3.41717898 C50.0356624,3.41717898 59.059171,13.3531844 64.0174416,17.5647673 C68.9757122,21.7763502 77.8365249,6.99031073 78.6959334,11.1630191 C80.7705008,21.2357198 70.187085,35.3779278 70.187085,35.3779278 C70.187085,35.3779278 83.2821466,28.7051634 83.9952979,31.8051487 C84.1888023,32.6462896 67.4254424,38.2361511 70.187085,46.0962651 C70.9169538,48.1735985 89.369022,34.2813784 90.8994043,39.6652627 C91.3577006,41.2775488 71.0219456,51.1259704 70.187085,58.2437141 C69.3522244,65.3614579 64.6637998,78.2512771 64.6637998,78.2512771 C64.6637998,78.2512771 58.6135396,77.389149 56.3788721,61.8164932 C54.1442045,46.2438374 38.4281953,53.6439965 38.4281953,51.0981559 C38.4281953,35.7915187 48.0939443,51.0149292 48.0939443,48.2399326 C48.0939443,35.3779278 32.6515037,45.7951604 32.9049101,43.2380419 C34.5534699,26.6024596 54.2788649,30.3197114 54.2788649,30.3197114 Z" id="path-15"></path>
        <mask id="mask-16" maskContentUnits="userSpaceOnUse" maskUnits="objectBoundingBox" x="0" y="0" width="58.0052096" height="74.8340982" fill="white">
            <use xlink:href="#path-15"></use>
        </mask>
        <path d="M64.6752342,39.1214819 C64.6752342,39.1214819 42.8489372,3.37364074 48.8590187,3.37364074 C50.5508193,3.37364074 62.4831764,19.1258311 67.441447,23.337414 C72.3997176,27.5489969 78.3516818,6.94677248 79.2110903,11.1194809 C81.2856577,21.1921816 69.3500485,37.7775694 69.3500485,37.7775694 C69.3500485,37.7775694 83.7973035,28.6616252 84.5104548,31.7616105 C84.7039592,32.6027514 67.4284167,41.547983 70.1900593,49.408097 C70.9199281,51.4854304 89.8841789,34.2378401 91.4145612,39.6217245 C91.8728575,41.2340106 71.5371025,51.0824321 70.7022419,58.2001759 C69.8673813,65.3179196 65.1789567,78.2077389 65.1789567,78.2077389 C65.1789567,78.2077389 59.1286965,77.3456108 56.894029,61.772955 C54.6593614,46.2002992 34.6050794,54.2888179 34.6050794,51.7429773 C34.6050794,36.4363401 54.5030684,54.5220875 54.5030684,51.7470909 C54.5030684,38.8850861 45.9749533,42.3641177 46.2283597,39.8069991 C47.8769195,23.1714169 64.6752342,39.1214819 64.6752342,39.1214819 Z" id="path-17"></path>
        <mask id="mask-18" maskContentUnits="userSpaceOnUse" maskUnits="objectBoundingBox" x="0" y="0" width="56.8171122" height="74.8340982" fill="white">
            <use xlink:href="#path-17"></use>
        </mask>
        <path d="M49.6906718,38.6744515 C49.9802261,37.6165374 50.4234096,37.6358779 50.6794887,38.7131854 L51.4504238,41.9564574 C51.706978,43.0357637 51.6233868,44.7616617 51.2715229,45.8039294 L42.0764658,78.8924392 C41.8768096,79.9799806 41.5682887,81.7427173 41.4015901,82.8384308 L39.9609921,121.781476 C39.9907957,122.88099 39.1745066,124.066964 38.1359548,124.431057 L38.4939576,124.30555 C37.4562138,124.66936 36.6603,124.072749 36.7182741,122.965605 L39.7635392,82.8314609 C39.902393,81.7435407 40.1398378,79.9742396 40.3046153,78.8917534 L49.6906718,38.6744515 Z" id="path-19"></path>
        <mask id="mask-20" maskContentUnits="userSpaceOnUse" maskUnits="objectBoundingBox" x="0" y="0" width="14.884361" height="86.5380952" fill="white">
            <use xlink:href="#path-19"></use>
        </mask>
        <path d="M58.3138612,49.40213 C58.6034155,48.344216 59.7264978,47.4866071 60.839163,47.4866071 L61.9371282,47.4866071 C63.0422596,47.4866071 63.7129882,48.3526438 63.4377333,49.4182726 L54.0907876,89.6301529 C53.8960288,90.7121521 53.5896521,92.4716761 53.4160382,93.5722384 L50.3999772,133.689844 C50.3658286,134.795585 49.4497934,135.691964 48.3371282,135.691964 L47.239163,135.691964 C46.1340316,135.691964 45.2834893,134.800428 45.3414635,133.693284 L48.3867286,93.5591395 C48.5255824,92.4712193 48.7630272,90.7019181 48.9278047,89.619432 L58.3138612,49.40213 Z" id="path-21"></path>
        <mask id="mask-22" maskContentUnits="userSpaceOnUse" maskUnits="objectBoundingBox" x="0" y="0" width="18.1608111" height="88.2053571" fill="white">
            <use xlink:href="#path-21"></use>
        </mask>
        <path d="M58.4667883,50.4896347 C58.7563425,49.4317206 59.8794249,48.5741118 60.9920901,48.5741118 L62.0900553,48.5741118 C63.1951867,48.5741118 63.7719691,49.4047575 63.3787871,50.4394526 L50.8607988,90.0484775 C50.6566047,91.1286103 50.3444051,92.8809424 50.1742769,93.9832071 L48.7294442,128.825112 C48.7634807,129.926663 48.346582,131.59879 47.798512,132.559496 L46.3836334,135.039621 C45.8354572,136.000512 45.4364164,135.887932 45.4943905,134.780789 L48.5396557,94.6466441 C48.6785094,93.558724 48.9159542,91.7894228 49.0807318,90.7069366 L58.4667883,50.4896347 Z" id="path-23"></path>
        <mask id="mask-24" maskContentUnits="userSpaceOnUse" maskUnits="objectBoundingBox" x="0" y="0" width="18.0134854" height="87.1178525" fill="white">
            <use xlink:href="#path-23"></use>
        </mask>
    </defs>
    <g id="Page-1" stroke="none" stroke-width="1" fill="none" fill-rule="evenodd">
        <g id="radish" transform="translate(1.000000, -2.000000)">
            <g id="stem" transform="translate(11.200000, 0.000000)" stroke-width="2">
                <use id="Rectangle-2" stroke="#0DA14E" mask="url(#mask-2)" fill="#0DA14E" transform="translate(39.387315, 44.423474) rotate(-4.000000) translate(-39.387315, -44.423474) " xlink:href="#path-1"></use>
                <use id="Rectangle-2" stroke="#13CE66" mask="url(#mask-4)" fill="#13CE66" transform="translate(32.901825, 44.741454) rotate(-4.000000) translate(-32.901825, -44.741454) " xlink:href="#path-3"></use>
                <use id="Rectangle-2" stroke="#0DA14E" mask="url(#mask-6)" fill="#0DA14E" transform="translate(78.505384, 73.435360) scale(-1, 1) rotate(-20.000000) translate(-78.505384, -73.435360) " xlink:href="#path-5"></use>
                <use id="Rectangle-2" stroke="#13CE66" mask="url(#mask-8)" fill="#13CE66" transform="translate(77.947161, 73.292902) scale(-1, 1) rotate(-20.000000) translate(-77.947161, -73.292902) " xlink:href="#path-7"></use>
                <use id="Rectangle" stroke="#13CE66" mask="url(#mask-10)" fill="#13CE66" xlink:href="#path-9"></use>
                <use id="Rectangle" stroke="#0DA14E" mask="url(#mask-12)" fill="#0DA14E" xlink:href="#path-11"></use>
                <use id="Rectangle" stroke="#13CE66" mask="url(#mask-14)" fill="#13CE66" transform="translate(42.519073, 80.861607) scale(-1, 1) translate(-42.519073, -80.861607) " xlink:href="#path-13"></use>
                <use id="Rectangle-2" stroke="#0DA14E" mask="url(#mask-16)" fill="#0DA14E" transform="translate(61.904430, 40.834228) rotate(6.000000) translate(-61.904430, -40.834228) " xlink:href="#path-15"></use>
                <use id="Rectangle-2" stroke="#13CE66" mask="url(#mask-18)" fill="#13CE66" transform="translate(63.013636, 40.790690) rotate(6.000000) translate(-63.013636, -40.790690) " xlink:href="#path-17"></use>
                <use id="Rectangle" stroke="#0DA14E" mask="url(#mask-20)" fill="#0DA14E" transform="translate(44.157478, 81.162010) scale(-1, 1) translate(-44.157478, -81.162010) " xlink:href="#path-19"></use>
                <use id="Rectangle" stroke="#13CE66" mask="url(#mask-22)" fill="#13CE66" transform="translate(54.419073, 91.589286) scale(-1, -1) translate(-54.419073, -91.589286) " xlink:href="#path-21"></use>
                <use id="Rectangle" stroke="#0DA14E" mask="url(#mask-24)" fill="#0DA14E" transform="translate(54.495536, 92.133038) scale(-1, -1) translate(-54.495536, -92.133038) " xlink:href="#path-23"></use>
            </g>
            <g id="root" transform="translate(0.000000, 115.428571)">
                <path d="M62.05,152.571429 C96.3192687,152.571429 124.1,133.092817 124.1,109.064732 C124.1,89.7065447 106.06838,73.3012809 81.1392897,67.6557095 C79.5551195,67.29695 67.1528845,61.8018349 64.6,54.8303571 C62.0471155,47.8588794 62.05,-1.42108547e-13 62.05,-1.42108547e-13 C62.05,-1.42108547e-13 68.1249674,38.1435327 59.5,54.8303571 C50.8750326,71.5171816 40.4172151,68.2650742 39.2220035,68.5968097 C16.2487935,74.9731097 0,90.6884402 0,109.064732 C0,133.092817 27.7807313,152.571429 62.05,152.571429 Z" id="Oval-2" stroke="#F74D68" fill="#F74D68" transform="translate(62.050000, 76.285714) scale(1, -1) translate(-62.050000, -76.285714) "></path>
                <path d="M62.05,152.571429 C96.3192687,152.571429 124.1,133.092817 124.1,109.064732 C124.1,89.7065447 106.06838,73.3012809 81.1392897,67.6557095 C79.5551195,67.29695 67.1528845,61.8018349 64.6,54.8303571 C62.0471155,47.8588794 62.05,-1.42108547e-13 62.05,-1.42108547e-13 C62.05,-1.42108547e-13 68.1249674,38.1435327 59.5,54.8303571 C50.8750326,71.5171816 89.9026064,79.5298717 88.7073948,79.8616071 C65.7341848,86.2379072 105.4,90.6884402 105.4,109.064732 C105.4,133.092817 27.7807313,152.571429 62.05,152.571429 Z" id="Oval-2" stroke-opacity="0.137850996" stroke="#CD173F" fill="#CD173F" transform="translate(88.707395, 76.285714) scale(1, -1) translate(-88.707395, -76.285714) "></path>
                <path d="M81.1392897,149.795146 C82.6329897,149.83177 67.1528845,143.941271 64.6,136.969794 C62.0471155,129.998316 62.05,82.1394366 62.05,82.1394366 C62.05,82.1394366 68.1249674,120.282969 59.5,136.969794 C50.8750326,153.656618 38.0829871,150.479101 39.2220035,150.736246 C68,157.233187 45.7461987,144.414994 62.05,144.121579 C78.3538013,143.828165 44.2,148.889437 81.1392897,149.795146 Z" id="Oval-2" stroke-opacity="0.0290421196" stroke="#F74D68" fill="#F9FAFC" transform="translate(60.195726, 117.355433) scale(1, -1) translate(-60.195726, -117.355433) "></path>
            </g>
        </g>
    </g>
</svg>