<?xml version="1.0" encoding="UTF-8" standalone="no"?>
<svg width="590px" height="384px" viewBox="0 0 590 384" version="1.1" xmlns="http://www.w3.org/2000/svg" xmlns:xlink="http://www.w3.org/1999/xlink">
    <!-- Generator: Sketch 41.2 (35397) - http://www.bohemiancoding.com/sketch -->
    <title>Slice 7</title>
    <desc>Created with Sketch.</desc>
    <defs></defs>
    <g id="Page-3" stroke="none" stroke-width="1" fill="none" fill-rule="evenodd">
        <g id="tomato-whole" transform="translate(0.000000, -88.000000)">
            <path d="M295,472 C457.924001,472 590,367.234631 590,238 C590,144.861615 521.299772,114.958506 421.992188,117.15625 C322.684603,119.353994 340.505952,141.382813 295,141.382813 C225.698382,141.382813 186.809059,113.992648 136.460938,117.15625 C86.1128162,120.319852 0,163.736821 0,238 C0,367.234631 132.075999,472 295,472 Z" id="Oval-6" fill="#D03501"></path>
            <g id="highlights" transform="translate(19.000000, 112.000000)" fill="#881802">
                <path d="M87,282.198602 C96.4128869,282.198602 97.2060124,288.501748 105.226563,282.198602 C107.918392,280.083162 49.1376377,219.65694 42.03125,210.503906 C34.9248623,201.350872 20.8125,177.768461 20.8125,149.046875 C20.8125,141.799464 27.4206576,112.765957 27.0351562,102.1875 C26.6496549,91.6090433 61.9830481,63.0197098 63.7851563,59.4434369 C66.7933835,53.4736278 98.5440317,46.4778527 112.199219,41.0496776 C129.193265,34.2942475 149.577598,48.582027 165.875,46.6953125 C182.172402,44.808598 195.543094,61.8228257 190.875,59.4434369 C187.164542,57.5521676 185.848761,45.1843223 181.914063,41.0496776 C177.979364,36.9150328 163.843922,32.552037 151.90625,29.1159249 C133.577431,23.8401994 90.7121109,29.1159249 87,29.1159249 C63.0237597,29.1159249 25.6459723,42.4684764 15,76.0454896 C4.35402774,109.622503 0.5546875,137.460265 0.5546875,155.885579 C0.5546875,184.674897 31.1968432,224.454205 42.03125,243.726221 C52.8656568,262.998237 69.1085773,282.198602 87,282.198602 Z" id="Oval-7" style="mix-blend-mode: color;"></path>
                <path d="M246.445313,352.427444 C251.534017,352.427444 232.988864,337.531484 216.21875,313.955063 C199.448636,290.378642 189.745069,265.064183 186.480469,260.859375 C179.374081,251.706341 174.445312,231.086498 174.445312,202.364912 C174.445312,195.117501 186.86597,164.238613 186.480469,153.660156 C186.094967,143.0817 221.006486,94.7364291 222.808594,91.1601563 C225.816821,85.1903471 246.445313,76.4921875 252.445313,64.6367188 C266.490609,36.8844572 263.008986,48.9375 259.296875,48.9375 C235.320635,48.9375 185.091285,112.697318 174.445313,146.274332 C163.79934,179.851345 160,207.689107 160,226.114421 C160,254.903739 190.642156,294.683047 201.476563,313.955063 C212.310969,333.227079 228.55389,352.427444 246.445313,352.427444 Z" id="Oval-7" style="mix-blend-mode: color;"></path>
                <path d="M418.445313,347.094374 C423.534017,347.094374 404.988864,332.198415 388.21875,308.621994 C371.448636,285.045573 361.745069,259.731114 358.480469,255.526305 C351.374081,246.373271 346.445312,225.753429 346.445312,197.031842 C346.445312,189.784431 358.86597,158.905543 358.480469,148.327087 C358.094967,137.74863 393.006486,89.4033595 394.808594,85.8270866 C397.816821,79.8572775 418.445313,71.1591179 424.445313,59.3036491 C438.490609,31.5513875 435.008986,43.6044304 431.296875,43.6044304 C407.320635,43.6044304 357.091285,107.364249 346.445312,140.941262 C335.79934,174.518275 332,202.356037 332,220.781351 C332,249.570669 362.642156,289.349978 373.476563,308.621994 C384.310969,327.89401 400.55389,347.094374 418.445313,347.094374 Z" id="Oval-7" fill-opacity="0.926120924" style="mix-blend-mode: color;" transform="translate(383.296033, 194.047187) scale(-1, -1) translate(-383.296033, -194.047187) "></path>
                <path d="M540.984152,333.667969 C546.072857,333.667969 483.830169,299.198415 467.060055,275.621994 C450.289941,252.045573 442.233128,250.400121 438.968527,246.195312 C431.86214,237.042278 408.85134,207.573149 408.85134,178.851563 C408.85134,171.604151 415.201685,131.535488 414.816184,120.957031 C414.500759,112.301527 422.865495,92.9965404 432.339621,78.984375 C441.813747,64.9722096 456.23469,39.8141576 456.562277,39.1640625 C459.570505,33.1942534 561.312277,27.4257812 567.312277,15.5703125 C581.357573,-12.1819491 513.422826,7.19921875 509.710715,7.19921875 C498.167384,7.19921875 448.603647,10.2123911 432.339621,30.1054688 C427.507727,36.0155211 416.518051,40.6454139 408.85134,48.4765625 C401.184629,56.3077111 381.962871,84.8032749 383.777121,95.296875 C385.05826,102.706967 379.425892,114.330113 379.218527,126.414062 C379.011163,138.498012 383.777121,159.214397 383.777121,164.031842 C383.777121,192.82116 441.48346,256.349978 452.317867,275.621994 C463.152274,294.89401 523.09273,333.667969 540.984152,333.667969 Z" id="Oval-7" style="mix-blend-mode: color;" transform="translate(474.216686, 167.142533) scale(-1, 1) translate(-474.216686, -167.142533) "></path>
            </g>
            <g id="leaves" transform="translate(129.000000, 0.000000)">
                <path d="M158.921502,165.205296 C158.921502,165.205296 113.315128,213.67558 99.0459639,224.917856 C84.7768002,236.160133 69.4676704,235.683475 69.4676704,235.683475 C69.4676704,235.683475 64.198644,210.214904 70.0104292,197.56628 C75.8222144,184.917655 101.694173,165.546517 101.694173,165.546517 C101.694173,165.546517 58.9881164,180.183089 48.926612,179.247381 C38.8651075,178.311672 24.4566259,158.363515 24.4566259,158.363515 C24.4566259,158.363515 86.3526187,131.034461 105.967619,128.695939 C125.58262,126.357417 146.173963,143.85224 146.173963,143.85224 C146.173963,143.85224 168.212867,142.330586 183.752066,130.174929 C186.138017,128.3085 205.570991,94.0878987 212.277688,90.0022386 C214.768893,88.4846194 259.439804,56.6688932 278.725127,49.6935176 C298.010451,42.718142 338.059273,62.1596575 338.059273,62.1596575 C338.059273,62.1596575 273.558556,77.97641 265.174364,88.6875948 C256.790171,99.3987797 211.434699,125.604233 211.434699,125.604233 C211.434699,125.604233 253.102444,104.300745 268.983536,99.1532105 C284.864628,94.0056757 316.163914,91.6583754 316.163914,91.6583754 C316.163914,91.6583754 261.413592,138.479839 244.813037,146.705153 C228.212481,154.930468 192.105985,153.127132 192.105985,153.127132 C192.105985,153.127132 211.540966,156.664671 215.956945,168.797473 C220.372923,180.930275 225.570197,245.0693 225.570197,245.0693 C225.570197,245.0693 182.554288,219.26826 166.715021,200.288334 C150.875754,181.308408 158.921502,165.205296 158.921502,165.205296 Z" id="Star" fill="#417505" transform="translate(181.257949, 146.626004) rotate(20.000000) translate(-181.257949, -146.626004) "></path>
                <path d="M134.169922,130.085938 C136.055572,131.737495 136.161869,138.649325 141.173828,135.642578 C145.91518,132.798173 139.619695,125.249484 134.169922,120.483939 C128.720148,115.718394 108.076671,105 83.5,105 C69.6388873,105 53.7934841,104.709072 42.8964844,105 C31.9994847,105.290928 33.7621305,103.683707 32.0234375,105 C26.0434222,109.527224 67.459392,112.478337 70.9765625,112.361328 C74.493733,112.244319 77.1900397,111.477277 89.9896753,112.361328 C100.023331,113.054337 107.949721,115.982181 113.782416,118.590121 C118.99025,120.91867 132.284272,128.43438 134.169922,130.085938 Z" id="Oval-10" fill="#203A01" style="mix-blend-mode: luminosity;"></path>
                <path d="M123.098825,171.167616 C124.616103,172.49523 135.032706,189.551334 139.065553,187.134344 C142.880656,184.847854 127.483957,167.279806 123.098825,163.448997 C118.713693,159.618188 101.645672,140.161286 81.8701808,140.161286 C70.7169087,140.161286 72.7880919,141.876109 64.0198778,142.109973 C55.2516637,142.343836 44.7387969,153.141732 43.3397666,154.199841 C40.435435,156.396435 51.7738159,150.238483 60.8627565,150.324565 C69.9516971,150.410646 76.4822577,149.361883 77.6041361,149.324598 C80.4342091,149.230539 82.8937673,150.773383 93.1929275,151.484033 C101.266457,152.041112 106.05765,156.723282 110.750898,158.819689 C114.941355,160.691506 121.581546,169.840002 123.098825,171.167616 Z" id="Oval-10" fill="#203A01" transform="translate(91.271909, 163.764920) rotate(-45.000000) translate(-91.271909, -163.764920) "></path>
                <path d="M134.169922,130.085938 C136.055572,131.737495 136.161869,138.649325 141.173828,135.642578 C145.91518,132.798173 139.619695,125.249484 134.169922,120.483939 C128.720148,115.718394 108.076671,105 83.5,105 C69.6388873,105 53.7934841,104.709072 42.8964844,105 C31.9994847,105.290928 33.7621305,103.683707 32.0234375,105 C26.0434222,109.527224 67.459392,112.478337 70.9765625,112.361328 C74.493733,112.244319 77.1900397,111.477277 89.9896753,112.361328 C100.023331,113.054337 107.949721,115.982181 113.782416,118.590121 C118.99025,120.91867 132.284272,128.43438 134.169922,130.085938 Z" id="Oval-10" fill="#203A01" style="mix-blend-mode: luminosity;"></path>
                <path d="M198.983222,214.972603 C200.526686,216.115215 211.123057,230.794557 215.225503,228.714374 C219.106448,226.746505 203.444032,211.626558 198.983222,208.329571 C194.522412,205.032584 177.159831,188.286993 157.043056,188.286993 C145.697301,188.286993 147.804228,189.762856 138.884693,189.964131 C129.965157,190.165406 115.810909,200.071166 114.387734,200.981828 C111.43328,202.872327 126.758144,202.255506 136.003941,202.329592 C145.249739,202.403678 152.206893,204.1565 153.348133,204.124409 C156.227047,204.043458 159.519726,203.361894 169.996628,203.973515 C178.20949,204.452965 182.570803,205.29433 187.345047,207.098603 C191.607822,208.709583 197.439758,213.829992 198.983222,214.972603 Z" id="Oval-10" fill="#203A01" transform="translate(164.926691, 208.601470) rotate(-127.000000) translate(-164.926691, -208.601470) "></path>
                <path d="M283.636,148.116362 C285.324831,149.013958 318.310148,160.24417 322.798973,158.610049 C327.045435,157.064159 290.683704,142.61989 285.802763,140.02989 C280.921822,137.43989 259.757225,127.153065 237.745799,127.153065 C225.331471,127.153065 227.636834,128.312453 217.877234,128.470567 C208.117633,128.628682 192.6303,136.410306 191.073087,137.125691 C187.840375,138.610802 204.608575,138.126248 214.725165,138.184448 C224.841756,138.242647 232.454153,139.619604 233.702878,139.594395 C236.852936,139.530802 240.455728,138.995389 251.919373,139.475857 C260.905743,139.852497 265.677816,140.513444 270.901711,141.930819 C275.565966,143.196349 281.947168,147.218766 283.636,148.116362 Z" id="Oval-10" fill="#203A01" transform="translate(256.904492, 142.962660) rotate(-15.000000) translate(-256.904492, -142.962660) "></path>
                <path d="M291.61797,117.946433 C293.586735,118.67476 341.937731,138.757329 347.170606,137.431373 C352.120945,136.177008 299.833874,113.48649 294.143887,111.384914 C288.453901,109.283339 263.781143,100.936411 238.12119,100.936411 C223.649113,100.936411 226.336604,101.87716 214.95929,102.005457 C209.411056,102.068022 194.660387,109.521121 187.969575,115.641523 C181.278763,121.761925 182.079922,127.189705 181.149851,127.487108 C178.631681,128.292328 183.213382,128.725992 193.005786,123.243069 C202.79819,117.760146 207.371742,109.871818 211.284748,109.887487 C223.078224,109.934711 231.952423,111.052 233.408131,111.031545 C237.08033,110.979945 241.280306,110.5455 254.64412,110.935361 C265.120036,111.240974 270.683109,111.777279 276.772896,112.927364 C282.210279,113.95424 289.649204,117.218107 291.61797,117.946433 Z" id="Oval-10" fill="#203A01" transform="translate(263.984858, 119.215322) rotate(-15.000000) translate(-263.984858, -119.215322) "></path>
                <path d="M183.921875,156.882812 C194.96757,156.882812 183.921875,142.075132 183.921875,136 C183.921875,129.924868 177.045695,136 166,136 C154.954305,136 148.804688,129.924868 148.804688,136 C148.804688,139.278933 140.612952,152.217331 148.804687,156.882812 C156.996423,161.548294 178.837876,156.882812 183.921875,156.882812 Z" id="Oval-8" fill="#1A2E02"></path>
                <path d="M166.5,153 C171.746705,153 176,149.865993 176,146 C176,143.966439 175.353841,140.278901 173.474609,139 C171.595378,137.721099 168.986873,139 166.5,139 C164.522495,139 161.512911,138.238195 159.992188,139 C158.471464,139.761805 157,143.591116 157,146 C157,149.865993 161.253295,153 166.5,153 Z" id="Oval-9" stroke="#417505"></path>
            </g>
        </g>
    </g>
</svg>